<?xml version="1.0" encoding="UTF-8" standalone="no"?>
<!-- Created with Inkscape (http://www.inkscape.org/) -->

<svg
   width="149mm"
   height="52mm"
   viewBox="0 0 149 52"
   version="1.1"
   id="svg37476"
   xmlns="http://www.w3.org/2000/svg"
   xmlns:svg="http://www.w3.org/2000/svg">
  <defs
     id="defs37473">
    <rect
       x="240.45615"
       y="31.669834"
       width="472.7016"
       height="174.77057"
       id="rect62766" />
    <rect
       x="240.45615"
       y="31.669834"
       width="453.9343"
       height="139.58186"
       id="rect62766-3" />
    <filter
       style="color-interpolation-filters:sRGB"
       id="filter48949-04"
       x="-0.19200001"
       y="-0.19200001"
       width="1.384"
       height="1.384">
      <feFlood
         flood-opacity="1"
         flood-color="rgb(255,255,255)"
         result="flood"
         id="feFlood48939-9" />
      <feComposite
         in="flood"
         in2="SourceGraphic"
         operator="in"
         result="composite1"
         id="feComposite48941-5" />
      <feGaussianBlur
         in="composite1"
         stdDeviation="4.8"
         result="blur"
         id="feGaussianBlur48943-5" />
      <feOffset
         dx="0"
         dy="0"
         result="offset"
         id="feOffset48945-04" />
      <feComposite
         in="SourceGraphic"
         in2="offset"
         operator="over"
         result="composite2"
         id="feComposite48947-1" />
    </filter>
  </defs>
  <g
     id="layer1">
    <g
       aria-label="Leftfield"
       transform="matrix(0.26458333,0,0,0.26458333,-3.5410919,-0.14726991)"
       id="text62764"
       style="font-weight:bold;font-size:85.3333px;line-height:1.25;font-family:'Segoe UI';-inkscape-font-specification:'Segoe UI, Bold';letter-spacing:0px;word-spacing:0px;white-space:pre;shape-inside:url(#rect62766);display:inline;fill:#fefefe;fill-opacity:0.996078">
      <path
         d="M 282.87368,108.53427 H 247.29036 V 48.784292 h 13.45833 v 48.833313 h 22.12499 z"
         id="path108" />
      <path
         d="m 327.95699,90.950941 h -27.83332 q 0.66667,9.291659 11.70833,9.291659 7.04166,0 12.375,-3.333328 v 9.499998 q -5.91667,3.16666 -15.375,3.16666 -10.33333,0 -16.04166,-5.70833 -5.70833,-5.749995 -5.70833,-15.999991 0,-10.624995 6.16667,-16.833326 6.16666,-6.208331 15.16666,-6.208331 9.33332,0 14.41666,5.541664 5.12499,5.541665 5.12499,15.041661 z m -12.20832,-8.08333 q 0,-9.166663 -7.41667,-9.166663 -3.16666,0 -5.5,2.624999 -2.29166,2.624999 -2.79166,6.541664 z"
         id="path110" />
      <path
         d="m 363.62364,55.450956 q -2.54166,-1 -4.87499,-1 -6.33334,0 -6.33334,6.874998 v 4.541664 h 9.75 v 9.70833 h -9.75 V 108.53427 H 339.29032 V 75.575948 h -7.16666 v -9.70833 h 7.16666 v -5.291664 q 0,-7.291664 4.75,-11.749995 4.75,-4.458332 12.91666,-4.458332 4,0 6.66666,0.833333 z"
         id="path112" />
      <path
         d="m 395.91531,108.03427 q -2.91667,1.54166 -8.79167,1.54166 -13.91666,0 -13.91666,-14.458324 V 75.575948 h -6.91666 v -9.70833 h 6.91666 v -9.208329 l 13.125,-3.749999 v 12.958328 h 9.58333 v 9.70833 h -9.58333 V 92.82594 q 0,6.666664 5.29166,6.666664 2.08333,0 4.29167,-1.208333 z"
         id="path114" />
      <path
         d="m 431.16528,55.450956 q -2.54166,-1 -4.87499,-1 -6.33333,0 -6.33333,6.874998 v 4.541664 h 9.74999 v 9.70833 h -9.74999 v 32.958322 h -13.125 V 75.575948 h -7.16666 v -9.70833 h 7.16666 v -5.291664 q 0,-7.291664 4.75,-11.749995 4.75,-4.458332 12.91666,-4.458332 4,0 6.66666,0.833333 z"
         id="path116" />
      <path
         d="m 442.70695,59.117621 q -3.33333,0 -5.45833,-1.958332 -2.125,-2 -2.125,-4.874998 0,-2.958332 2.125,-4.833332 2.125,-1.874999 5.45833,-1.874999 3.375,0 5.45834,1.874999 2.125,1.875 2.125,4.833332 0,2.999998 -2.125,4.916664 -2.08334,1.916666 -5.45834,1.916666 z m 6.5,49.416649 H 436.04029 V 65.867618 h 13.16666 z"
         id="path118" />
      <path
         d="m 498.62359,90.950941 h -27.83332 q 0.66667,9.291659 11.70833,9.291659 7.04166,0 12.37499,-3.333328 v 9.499998 q -5.91666,3.16666 -15.37499,3.16666 -10.33333,0 -16.04166,-5.70833 -5.70833,-5.749995 -5.70833,-15.999991 0,-10.624995 6.16666,-16.833326 6.16667,-6.208331 15.16666,-6.208331 9.33333,0 14.41667,5.541664 5.12499,5.541665 5.12499,15.041661 z m -12.20833,-8.08333 q 0,-9.166663 -7.41666,-9.166663 -3.16666,0 -5.5,2.624999 -2.29166,2.624999 -2.79166,6.541664 z"
         id="path120" />
      <path
         d="M 519.62358,108.53427 H 506.45692 V 45.367627 h 13.16666 z"
         id="path122" />
      <path
         d="m 572.4569,108.53427 h -13.16666 v -5.875 h -0.16667 q -4.5,6.91666 -13.20833,6.91666 -7.99999,0 -12.87499,-5.62499 -4.875,-5.666669 -4.875,-15.791664 0,-10.583329 5.375,-16.958327 5.375,-6.374997 14.08333,-6.374997 8.24999,0 11.49999,5.916664 h 0.16667 V 45.367627 H 572.4569 Z M 559.54024,87.784276 v -3.208332 q 0,-4.166665 -2.41667,-6.916664 -2.41666,-2.749999 -6.29166,-2.749999 -4.375,0 -6.83333,3.458332 -2.45833,3.416665 -2.45833,9.416663 0,5.624997 2.37499,8.666663 2.375,3.041665 6.58334,3.041665 3.99999,0 6.49999,-3.208332 2.54167,-3.208332 2.54167,-8.499996 z"
         id="path124" />
    </g>
    <g
       aria-label="Geospatial"
       transform="matrix(0.26458333,0,0,0.26458333,-3.2705049,21.641156)"
       id="text62764-3"
       style="font-size:69.3333px;line-height:1.25;font-family:'Segoe UI';-inkscape-font-specification:'Segoe UI, Normal';letter-spacing:0px;word-spacing:0px;white-space:pre;shape-inside:url(#rect62766-3);display:inline;fill:#a8a8a8;fill-opacity:0.996078">
      <path
         d="m 283.11326,90.80449 q -7.3125,4.130206 -16.24999,4.130206 -10.39323,0 -16.82551,-6.703122 -6.39844,-6.703121 -6.39844,-17.739574 0,-11.273431 7.10937,-18.484365 7.14323,-7.244788 18.07812,-7.244788 7.92187,0 13.30468,2.572915 v 6.296872 q -5.89062,-3.723957 -13.94791,-3.723957 -8.15885,0 -13.37239,5.619789 -5.21354,5.619789 -5.21354,14.557284 0,9.208329 4.84114,14.489576 4.84115,5.247393 13.13541,5.247393 5.6875,0 9.85156,-2.268228 V 73.945123 h -10.6302 v -5.14583 h 16.3177 z"
         id="path127" />
      <path
         d="m 321.50386,78.176892 h -24.47655 q 0.13542,5.78906 3.11459,8.937496 2.97916,3.148435 8.1927,3.148435 5.85677,0 10.76562,-3.859373 v 5.213539 q -4.57031,3.317707 -12.08593,3.317707 -7.34635,0 -11.54427,-4.705727 -4.19791,-4.739581 -4.19791,-13.30468 0,-8.091142 4.57031,-13.169264 4.60416,-5.111977 11.40885,-5.111977 6.80468,0 10.52864,4.401039 3.72395,4.40104 3.72395,12.221348 z m -5.68749,-4.705727 q -0.0339,-4.807289 -2.33594,-7.481767 -2.26823,-2.674477 -6.33073,-2.674477 -3.92708,0 -6.66926,2.809894 -2.74219,2.809894 -3.38542,7.34635 z"
         id="path129" />
      <path
         d="m 344.38927,94.934696 q -7.68489,0 -12.28905,-4.841143 -4.57031,-4.874998 -4.57031,-12.898431 0,-8.734371 4.77343,-13.643222 4.77344,-4.908852 12.89843,-4.908852 7.7526,0 12.08593,4.773435 4.36719,4.773435 4.36719,13.236972 0,8.294267 -4.70573,13.304681 -4.67187,4.97656 -12.55989,4.97656 z m 0.40625,-31.619775 q -5.34895,0 -8.46354,3.656248 -3.11458,3.622394 -3.11458,10.020828 0,6.161455 3.14844,9.716141 3.14843,3.554685 8.42968,3.554685 5.38281,0 8.26041,-3.486977 2.91146,-3.486977 2.91146,-9.919266 0,-6.499996 -2.91146,-10.020828 -2.8776,-3.520831 -8.26041,-3.520831 z"
         id="path131" />
      <path
         d="m 368.42572,92.869593 v -5.95833 q 4.53645,3.35156 9.98697,3.35156 7.3125,0 7.3125,-4.874997 0,-1.38802 -0.64323,-2.335936 -0.60938,-0.981771 -1.69271,-1.726562 -1.04948,-0.744791 -2.50521,-1.320312 -1.42187,-0.609375 -3.08072,-1.252603 -2.30209,-0.914062 -4.0625,-1.828124 -1.72656,-0.947917 -2.91146,-2.098958 -1.15104,-1.184895 -1.76042,-2.674477 -0.57552,-1.489583 -0.57552,-3.486978 0,-2.437499 1.11719,-4.299477 1.11719,-1.895832 2.97917,-3.148436 1.86197,-1.286457 4.23176,-1.929686 2.40365,-0.643229 4.94271,-0.643229 4.5026,0 8.05729,1.557291 v 5.619789 q -3.82552,-2.505207 -8.80208,-2.505207 -1.55729,0 -2.80989,0.372395 -1.25261,0.338542 -2.16667,0.981771 -0.88021,0.643228 -1.38802,1.55729 -0.47396,0.880208 -0.47396,1.963541 0,1.354166 0.47396,2.268228 0.50781,0.914062 1.45573,1.624999 0.94791,0.710937 2.30208,1.286458 1.35417,0.57552 3.08073,1.252603 2.30208,0.880208 4.1302,1.828125 1.82813,0.914062 3.11459,2.098957 1.28645,1.151041 1.96354,2.674478 0.71093,1.523436 0.71093,3.622394 0,2.572915 -1.15104,4.468747 -1.11718,1.895833 -3.01302,3.148436 -1.89583,1.252604 -4.36718,1.861978 -2.47136,0.609375 -5.17969,0.609375 -5.34895,0 -9.27603,-2.065103 z"
         id="path133" />
      <path
         d="m 405.63143,89.111782 h -0.13542 V 110.0675 h -5.55208 V 59.455548 h 5.55208 v 6.093746 h 0.13542 q 4.09635,-6.906246 11.98437,-6.906246 6.70312,0 10.46093,4.671873 3.75781,4.638018 3.75781,12.458327 0,8.700516 -4.23177,13.947909 -4.23177,5.213539 -11.57812,5.213539 -6.73697,0 -10.39322,-5.822914 z m -0.13542,-13.981763 v 4.841143 q 0,4.299477 2.77604,7.312496 2.8099,2.979165 7.10937,2.979165 5.04427,0 7.88802,-3.859373 2.8776,-3.859373 2.8776,-10.731765 0,-5.789059 -2.67448,-9.072912 -2.67447,-3.283852 -7.24478,-3.283852 -4.84115,0 -7.78646,3.385415 -2.94531,3.35156 -2.94531,8.429683 z"
         id="path135" />
      <path
         d="m 465.51941,94.122196 h -5.55208 v -5.416663 h -0.13541 q -3.6224,6.229163 -10.66406,6.229163 -5.17969,0 -8.125,-2.742186 -2.91145,-2.742186 -2.91145,-7.278642 0,-9.716141 11.4427,-11.307286 l 10.39322,-1.455728 q 0,-8.835933 -7.14322,-8.835933 -6.26302,0 -11.30729,4.265622 v -5.687497 q 5.11198,-3.249998 11.78125,-3.249998 12.22134,0 12.22134,12.932285 z m -5.55208,-17.536449 -8.36197,1.151041 q -3.85937,0.541667 -5.82292,1.929687 -1.96354,1.354166 -1.96354,4.841143 0,2.539061 1.79427,4.16406 1.82813,1.591145 4.84115,1.591145 4.1302,0 6.80468,-2.877602 2.70833,-2.911457 2.70833,-7.346351 z"
         id="path137" />
      <path
         d="m 492.06107,93.783655 q -1.96354,1.083333 -5.17968,1.083333 -9.10677,0 -9.10677,-10.156245 V 64.195128 h -5.95833 v -4.73958 h 5.95833 V 50.99201 l 5.55208,-1.79427 v 10.257808 h 8.73437 v 4.73958 h -8.73437 v 19.533845 q 0,3.486977 1.1849,4.97656 1.18489,1.489582 3.92708,1.489582 2.09896,0 3.62239,-1.151041 z"
         id="path139" />
      <path
         d="m 502.31888,50.653469 q -1.48958,0 -2.53906,-1.015625 -1.04948,-1.015624 -1.04948,-2.572915 0,-1.557291 1.04948,-2.572915 1.04948,-1.049479 2.53906,-1.049479 1.52344,0 2.57292,1.049479 1.08333,1.015624 1.08333,2.572915 0,1.489582 -1.08333,2.539061 -1.04948,1.049479 -2.57292,1.049479 z m 2.70834,43.468727 h -5.55208 V 59.455548 h 5.55208 z"
         id="path141" />
      <path
         d="m 541.08188,94.122196 h -5.55208 v -5.416663 h -0.13541 q -3.6224,6.229163 -10.66406,6.229163 -5.17969,0 -8.125,-2.742186 -2.91145,-2.742186 -2.91145,-7.278642 0,-9.716141 11.4427,-11.307286 l 10.39322,-1.455728 q 0,-8.835933 -7.14322,-8.835933 -6.26302,0 -11.30729,4.265622 v -5.687497 q 5.11198,-3.249998 11.78125,-3.249998 12.22134,0 12.22134,12.932285 z m -5.55208,-17.536449 -8.36197,1.151041 q -3.85937,0.541667 -5.82292,1.929687 -1.96354,1.354166 -1.96354,4.841143 0,2.539061 1.79427,4.16406 1.82813,1.591145 4.84115,1.591145 4.1302,0 6.80468,-2.877602 2.70833,-2.911457 2.70833,-7.346351 z"
         id="path143" />
      <path
         d="m 557.0949,94.122196 h -5.55208 v -51.32289 h 5.55208 z"
         id="path145" />
    </g>
    <circle
       id="path64657"
       style="fill:#000000;stroke:#000000;stroke-width:0.264583"
       cx="61.468246"
       cy="32.320438"
       r="0" />
    <circle
       id="path64659"
       style="fill:#000000;stroke:#000000;stroke-width:0.264583"
       cx="29.502735"
       cy="25.880785"
       r="0" />
    <circle
       id="path64657-8"
       style="fill:#000000;stroke:#000000;stroke-width:0.264583"
       cx="61.505653"
       cy="32.560036"
       r="0" />
    <circle
       id="path64659-9"
       style="fill:#000000;stroke:#000000;stroke-width:0.264583"
       cx="29.540146"
       cy="26.120386"
       r="0" />
    <g
       id="path64675"
       transform="translate(-0.87362338,-0.25889933)" />
    <circle
       id="path64657-9"
       style="fill:#000000;stroke:#000000;stroke-width:0.264583"
       cx="61.486835"
       cy="32.488789"
       r="0" />
    <circle
       id="path64659-4"
       style="fill:#000000;stroke:#000000;stroke-width:0.264583"
       cx="29.521318"
       cy="26.049131"
       r="0" />
    <g
       id="path64675-1"
       transform="translate(-0.89245423,-0.33015865)" />
    <circle
       id="path64657-7"
       style="fill:#000000;stroke:#000000;stroke-width:0.264583"
       cx="61.46167"
       cy="32.497425"
       r="0" />
    <circle
       id="path64659-8"
       style="fill:#000000;stroke:#000000;stroke-width:0.264583"
       cx="29.496124"
       cy="26.05777"
       r="0" />
    <g
       id="path64675-17"
       transform="translate(-0.91764608,-0.32152814)" />
    <path
       id="path38012"
       style="fill:#2f8cef;stroke-width:1.90498;stroke-opacity:0.996078"
       d="M 51.547274,26.075499 A 25.574499,25.574499 0 0 1 25.972775,51.649998 25.574499,25.574499 0 0 1 0.39827538,26.075499 25.574499,25.574499 0 0 1 25.972775,0.50099945 25.574499,25.574499 0 0 1 51.547274,26.075499 Z" />
    <path
       id="path47820"
       style="fill:#ffffff;fill-opacity:0.996078;stroke-width:1.965;filter:url(#filter48949-04)"
       transform="matrix(0.51149047,0,0,0.51149047,-2.1566054,-1.7927342)"
       d="m 96.454048,50.14053 a 30,30 0 0 1 -30,30 30,30 0 0 1 -30,-30 30,30 0 0 1 30,-30 30,30 0 0 1 30,30 z" />
    <path
       style="color:#000000;fill:#000000;stroke-width:1.239;-inkscape-stroke:none"
       d="m 32.909421,33.424146 c -0.519949,-0.04046 -2.509703,-0.211765 -1.054901,0.199091 1.099111,0.170982 1.973164,0.850188 3.274771,0.395946 -0.570225,-0.297113 -1.443319,-0.550426 -2.219873,-0.595015 z"
       id="path13181-4" />
    <circle
       id="path64657-6"
       style="fill:#000000;stroke:#000000;stroke-width:0.264583"
       cx="61.437561"
       cy="32.490047"
       r="0" />
    <circle
       id="path64659-1"
       style="fill:#000000;stroke:#000000;stroke-width:0.264583"
       cx="29.47205"
       cy="26.050396"
       r="0" />
    <g
       id="path64675-6"
       transform="translate(-0.94174199,-0.32891241)" />
    <path
       style="color:#000000;fill:#000000;stroke-width:1.33023;-inkscape-stroke:none"
       d="m 44.787387,22.059934 c -0.24523,0.500906 -0.628255,2.453277 0.09144,1.065731 0.347649,-0.683342 1.37729,-2.346269 0.924707,-2.622393 -0.359463,0.505815 -0.810821,0.955913 -1.016145,1.556662 z"
       id="path13191" />
    <path
       style="color:#000000;fill:#000000;stroke-width:1.33023;-inkscape-stroke:none"
       d="m 47.280672,25.379637 c -0.735562,0.06214 -2.46836,0.930788 -0.741696,0.782875 1.200845,-0.237841 2.509444,-0.08846 3.626403,-0.62945 -0.808153,-0.373757 -2.003573,-0.358501 -2.884707,-0.153425 z"
       id="path13189" />
    <path
       style="color:#000000;fill:#000000;stroke-width:1.33023;-inkscape-stroke:none"
       d="m 44.711624,28.247147 c -0.605759,-0.143115 -2.295653,-0.557556 -0.894862,0.237184 0.927514,0.281781 2.3125,0.88392 3.077481,0.654171 -0.638387,-0.51533 -1.438458,-0.614026 -2.182619,-0.891355 z"
       id="path13187" />
    <path
       style="color:#000000;fill:#000000;stroke-width:1.33023;-inkscape-stroke:none"
       d="m 40.473565,31.483269 c -0.506556,-0.149694 -2.261279,-0.189488 -0.828842,0.202896 0.949404,0.353701 2.551378,0.789867 3.237031,0.49678 -0.801645,-0.249815 -1.56243,-0.60866 -2.40819,-0.699678 z"
       id="path13183" />
    <path
       style="color:#000000;fill:#000000;stroke-width:1.33023;-inkscape-stroke:none"
       d="m 42.790043,30.4025 c -0.559662,-0.01719 -2.735238,0.08506 -1.154316,0.452331 1.179158,0.03749 2.540622,0.357564 3.512882,-0.502522 -0.626519,-0.289894 -1.671642,-0.110361 -2.358568,0.0502 z"
       id="path13181" />
    <path
       style="color:#000000;fill:#000000;stroke-width:1.33023;-inkscape-stroke:none"
       d="m 36.992832,29.348899 c -0.539942,0.131601 -2.246195,1.557547 -0.727496,0.856514 0.831799,-0.280011 2.408982,-0.726135 2.510461,-1.45196 -0.606771,0.155411 -1.196441,0.382752 -1.782965,0.595446 z"
       id="path13179" />
    <path
       style="color:#000000;fill:#000000;stroke-width:1.33023;-inkscape-stroke:none"
       d="m 42.853899,25.844118 c -1.261515,1.200353 -2.31684,1.155703 -3.907255,1.329715 -0.761398,0.217364 -1.190245,0.111186 -1.949665,0.08391 -1.39975,-0.208909 -1.169241,-0.06462 -2.531187,-0.444119 -1.213548,-0.350884 -2.672394,-0.284369 -3.110899,-0.170643 -0.766869,-0.0037 -2.24371,0.154962 -2.804381,0.109138 0.235962,-0.417045 0.908494,-1.429831 1.503784,-1.833996 0.30562,-0.600545 0.865724,-1.189555 1.475362,-1.349273 1.317929,-0.987988 2.886835,-0.572292 5.092196,-0.465087 1.813922,-0.477361 0.009,-0.208944 -0.558106,-0.295072 -1.114158,-0.130905 -2.129055,-0.195691 -3.243213,-0.326595 -0.262776,0.05398 -0.617647,0.07936 -0.833006,0.114533 -0.215359,0.03517 0.101219,-0.291768 0.09142,-0.488266 -0.0226,-0.455528 1.083043,-1.148793 0.858885,-1.314891 -0.05609,-0.04156 -1.429235,1.029073 -1.453499,1.187076 -0.0222,0.144556 -0.384263,0.603403 -0.521472,0.669177 -0.137209,0.06578 -1.069552,0.545676 -1.215103,0.645569 -0.145552,0.09989 -0.298062,0.219492 -0.463108,0.364088 -0.165046,0.144597 -0.342628,0.314192 -0.53832,0.514078 -0.595409,0.746955 -0.309556,0.328242 -1.154451,1.128096 -0.473904,0.293649 -0.413458,0.707298 -2.471167,1.647962 -1.150765,0.380293 -1.556695,0.62229 -2.287179,1.619297 -1.140092,1.42539 -1.314888,3.690491 -3.532621,4.386022 -1.846191,0.167231 -2.962228,1.39197 -4.678895,1.697296 0.1451,-0.237696 0.314195,-1.720411 0.426441,-1.898834 0.765234,-1.662947 0.72113,-2.198025 1.977658,-3.631303 0.376419,-0.386965 0.57526,-1.846915 0.472555,-2.31702 -0.28936,-0.125575 -0.290833,0.291599 -0.498914,1.162568 -1.093198,1.597552 -2.747378,2.546342 -3.395658,4.518587 -0.240656,0.801341 -0.742017,2.007734 -1.62574,2.879928 -1.578058,1.185045 -2.812359,1.372334 -4.0400631,2.343365 -0.370634,0.356128 -1.6291329,1.359707 -1.6728448,1.375797 -1.5273646,0.736308 -0.879142,0.362348 -1.6613165,1.018016 1.5867509,2.415703 3.571505,4.544959 5.8699234,6.29729 0.558479,-0.70278 1.141892,-0.941063 1.623399,-1.576841 0.128977,0.009 0.679546,-0.95403 1.288052,-1.325308 1.17515,-1.397172 1.863371,-1.795303 2.904731,-3.318661 0.300005,-0.653241 1.176471,-1.176219 1.949094,-1.31622 0.828892,-0.363249 0.696862,-0.28393 1.698999,-0.881723 0.958141,-0.669867 1.59178,-0.64868 2.220829,-0.8473 0.924986,-0.503802 1.280001,-0.663395 1.574013,-1.087525 0.294012,-0.424131 0.524669,-0.851054 1.271779,-1.494788 0.725183,-0.588881 1.613664,-0.535718 2.459798,-0.826306 1.266256,-0.138951 1.138446,-0.127184 2.399853,-0.164848 0.726922,-0.195289 1.875318,-0.770502 2.395276,-0.801662 2.109748,-0.734913 2.776398,-0.772757 4.339883,-1.313966 1.609481,-0.413064 3.535723,-0.965005 4.757463,-1.525675 0.649181,-0.419413 -1.397141,0.180656 -2.029248,0.338402 -1.04692,0.261274 -2.273849,0.414681 -3.172805,0.589498 -0.399166,-0.177251 -0.67166,0.413083 -2.426943,0.659327 -1.126094,0.190019 -3.917063,1.032806 -4.471756,0.955971 -1.090182,-0.01096 -1.833931,0.05489 -3.087249,0.144178 -0.646108,0.09908 -1.009253,-0.214193 -0.861334,-0.6992 0.179281,-0.749505 0.471177,-2.012021 2.241095,-2.984314 2.613074,-0.758539 3.552801,-1.001574 6.053665,-0.881023 2.059719,0.313819 4.633706,0.314394 8.279657,-0.355743 1.438431,-1.153376 2.940448,-0.150585 3.716422,-0.513732 -1.294846,-0.651781 -2.322751,-0.467111 -1.456995,-1.358028 0.346169,-0.35623 0.656402,-0.800223 1.035047,-1.134215 0.378645,-0.33399 0.373139,-0.435321 0.856647,-0.672757 0.73133,-0.500884 1.240742,-1.067015 0.09847,-0.482653 -1.040928,0.4719 -0.416633,0.127072 -1.52926,0.979275 z"
       id="path13177" />
    <path
       style="color:#000000;fill:#000000;stroke-width:1.33023;-inkscape-stroke:none"
       d="m 35.65321,21.177607 c -0.682296,-0.02861 -2.097378,0.94938 -0.544322,0.643908 0.874719,0.03387 2.805492,-0.357564 2.649944,-1.25372 -0.747761,0.01667 -1.41077,0.394793 -2.105622,0.609812 z"
       id="path13175" />
    <path
       style="color:#000000;fill:#000000;stroke-width:1.33023;-inkscape-stroke:none"
       d="m 32.964043,19.722676 c -0.481905,1.243588 1.151961,-0.628853 1.127112,-1.08432 0.435101,-0.434117 0.65356,-1.734128 -0.126136,-0.750982 -0.448693,0.557921 -0.788639,1.150298 -1.000976,1.835302 z"
       id="path13173" />
    <path
       style="color:#000000;fill:#000000;stroke-width:1.33023;-inkscape-stroke:none"
       d="m 40.668633,21.188639 c -0.879452,-0.09971 -2.569495,0.79825 -2.615907,1.229124 0.997433,-0.157261 2.702567,-0.537999 3.171826,-1.251524 -0.183541,-0.04325 -0.371993,0.01204 -0.555919,0.0224 z"
       id="path13171" />
    <path
       style="color:#000000;fill:#000000;stroke-width:1.33023;-inkscape-stroke:none"
       d="m 33.789369,23.725165 c -0.642732,-0.149519 -2.225139,-0.117343 -0.778167,0.331633 0.754691,0.175723 2.239237,0.817924 2.635712,0.175948 -0.568254,-0.303047 -1.225482,-0.419394 -1.857545,-0.507581 z"
       id="path13169" />
    <path
       style="color:#000000;fill:#000000;stroke-width:1.33023;-inkscape-stroke:none"
       d="m 19.243766,27.591539 c -0.617941,0.16432 -2.17508,1.363818 -0.584355,0.667679 0.921705,-0.119768 2.928122,-1.057675 2.588799,-1.878233 -0.753949,0.251853 -1.315856,0.846404 -2.004444,1.210554 z"
       id="path13167" />
    <path
       style="color:#000000;fill:#000000;stroke-width:1.33023;-inkscape-stroke:none"
       d="m 14.835885,28.068078 c 0.828654,-0.256124 0.524444,-2.442037 0.137191,-3.331333 -0.949876,-0.470213 -0.02362,2.273222 -0.144892,3.03575 l 0.0077,0.29558 z"
       id="path13165" />
    <path
       style="color:#000000;fill:#000000;stroke-width:1.33023;-inkscape-stroke:none"
       d="m 20.876892,24.521563 c -0.853474,0.519884 -1.773749,1.298273 -2.156223,2.232063 1.323523,-0.7413 2.666298,-1.511094 3.717486,-2.623486 -0.261637,-0.491882 -1.143107,0.318159 -1.561263,0.391423 z"
       id="path13163" />
    <path
       style="color:#000000;fill:#000000;stroke-width:1.33023;-inkscape-stroke:none"
       d="m 47.926015,21.537277 c -0.722756,0.376754 -1.992955,1.561509 -0.431565,0.94107 0.980224,-0.406288 2.536293,-0.68468 2.803998,-1.753352 -0.808011,0.165104 -1.556523,0.61461 -2.372433,0.812282 z"
       id="path1300-6-6" />
  </g>
</svg>
