<?xml version="1.0" encoding="UTF-8" standalone="no"?>
<!-- Created with Inkscape (http://www.inkscape.org/) -->

<svg
   width="149mm"
   height="52mm"
   viewBox="0 0 149 52"
   version="1.1"
   id="svg37476"
   xmlns="http://www.w3.org/2000/svg"
   xmlns:svg="http://www.w3.org/2000/svg">
  <defs
     id="defs37473">
    <rect
       x="240.45615"
       y="31.669834"
       width="472.7016"
       height="174.77057"
       id="rect62766" />
    <rect
       x="240.45615"
       y="31.669834"
       width="453.9343"
       height="139.58186"
       id="rect62766-3" />
    <filter
       style="color-interpolation-filters:sRGB"
       id="filter48949-49"
       x="-0.19200001"
       y="-0.19200001"
       width="1.384"
       height="1.384">
      <feFlood
         flood-opacity="1"
         flood-color="rgb(255,255,255)"
         result="flood"
         id="feFlood48939-4" />
      <feComposite
         in="flood"
         in2="SourceGraphic"
         operator="in"
         result="composite1"
         id="feComposite48941-7" />
      <feGaussianBlur
         in="composite1"
         stdDeviation="4.8"
         result="blur"
         id="feGaussianBlur48943-02" />
      <feOffset
         dx="0"
         dy="0"
         result="offset"
         id="feOffset48945-01" />
      <feComposite
         in="SourceGraphic"
         in2="offset"
         operator="over"
         result="composite2"
         id="feComposite48947-5" />
    </filter>
  </defs>
  <g
     id="layer1">
    <g
       aria-label="Leftfield"
       transform="matrix(0.26458333,0,0,0.26458333,-3.5410919,-0.14726991)"
       id="text62764"
       style="font-weight:bold;font-size:85.3333px;line-height:1.25;font-family:'Segoe UI';-inkscape-font-specification:'Segoe UI, Bold';letter-spacing:0px;word-spacing:0px;white-space:pre;shape-inside:url(#rect62766);display:inline;fill-opacity:0.996078">
      <path
         d="M 282.87368,108.53427 H 247.29036 V 48.784292 h 13.45833 v 48.833313 h 22.12499 z"
         id="path117" />
      <path
         d="m 327.95699,90.950941 h -27.83332 q 0.66667,9.291659 11.70833,9.291659 7.04166,0 12.375,-3.333328 v 9.499998 q -5.91667,3.16666 -15.375,3.16666 -10.33333,0 -16.04166,-5.70833 -5.70833,-5.749995 -5.70833,-15.999991 0,-10.624995 6.16667,-16.833326 6.16666,-6.208331 15.16666,-6.208331 9.33332,0 14.41666,5.541664 5.12499,5.541665 5.12499,15.041661 z m -12.20832,-8.08333 q 0,-9.166663 -7.41667,-9.166663 -3.16666,0 -5.5,2.624999 -2.29166,2.624999 -2.79166,6.541664 z"
         id="path119" />
      <path
         d="m 363.62364,55.450956 q -2.54166,-1 -4.87499,-1 -6.33334,0 -6.33334,6.874998 v 4.541664 h 9.75 v 9.70833 h -9.75 V 108.53427 H 339.29032 V 75.575948 h -7.16666 v -9.70833 h 7.16666 v -5.291664 q 0,-7.291664 4.75,-11.749995 4.75,-4.458332 12.91666,-4.458332 4,0 6.66666,0.833333 z"
         id="path121" />
      <path
         d="m 395.91531,108.03427 q -2.91667,1.54166 -8.79167,1.54166 -13.91666,0 -13.91666,-14.458324 V 75.575948 h -6.91666 v -9.70833 h 6.91666 v -9.208329 l 13.125,-3.749999 v 12.958328 h 9.58333 v 9.70833 h -9.58333 V 92.82594 q 0,6.666664 5.29166,6.666664 2.08333,0 4.29167,-1.208333 z"
         id="path123" />
      <path
         d="m 431.16528,55.450956 q -2.54166,-1 -4.87499,-1 -6.33333,0 -6.33333,6.874998 v 4.541664 h 9.74999 v 9.70833 h -9.74999 v 32.958322 h -13.125 V 75.575948 h -7.16666 v -9.70833 h 7.16666 v -5.291664 q 0,-7.291664 4.75,-11.749995 4.75,-4.458332 12.91666,-4.458332 4,0 6.66666,0.833333 z"
         id="path125" />
      <path
         d="m 442.70695,59.117621 q -3.33333,0 -5.45833,-1.958332 -2.125,-2 -2.125,-4.874998 0,-2.958332 2.125,-4.833332 2.125,-1.874999 5.45833,-1.874999 3.375,0 5.45834,1.874999 2.125,1.875 2.125,4.833332 0,2.999998 -2.125,4.916664 -2.08334,1.916666 -5.45834,1.916666 z m 6.5,49.416649 H 436.04029 V 65.867618 h 13.16666 z"
         id="path127" />
      <path
         d="m 498.62359,90.950941 h -27.83332 q 0.66667,9.291659 11.70833,9.291659 7.04166,0 12.37499,-3.333328 v 9.499998 q -5.91666,3.16666 -15.37499,3.16666 -10.33333,0 -16.04166,-5.70833 -5.70833,-5.749995 -5.70833,-15.999991 0,-10.624995 6.16666,-16.833326 6.16667,-6.208331 15.16666,-6.208331 9.33333,0 14.41667,5.541664 5.12499,5.541665 5.12499,15.041661 z m -12.20833,-8.08333 q 0,-9.166663 -7.41666,-9.166663 -3.16666,0 -5.5,2.624999 -2.29166,2.624999 -2.79166,6.541664 z"
         id="path129" />
      <path
         d="M 519.62358,108.53427 H 506.45692 V 45.367627 h 13.16666 z"
         id="path131" />
      <path
         d="m 572.4569,108.53427 h -13.16666 v -5.875 h -0.16667 q -4.5,6.91666 -13.20833,6.91666 -7.99999,0 -12.87499,-5.62499 -4.875,-5.666669 -4.875,-15.791664 0,-10.583329 5.375,-16.958327 5.375,-6.374997 14.08333,-6.374997 8.24999,0 11.49999,5.916664 h 0.16667 V 45.367627 H 572.4569 Z M 559.54024,87.784276 v -3.208332 q 0,-4.166665 -2.41667,-6.916664 -2.41666,-2.749999 -6.29166,-2.749999 -4.375,0 -6.83333,3.458332 -2.45833,3.416665 -2.45833,9.416663 0,5.624997 2.37499,8.666663 2.375,3.041665 6.58334,3.041665 3.99999,0 6.49999,-3.208332 2.54167,-3.208332 2.54167,-8.499996 z"
         id="path133" />
    </g>
    <g
       aria-label="Geospatial"
       transform="matrix(0.26458333,0,0,0.26458333,-3.2705049,21.641156)"
       id="text62764-3"
       style="font-size:69.3333px;line-height:1.25;font-family:'Segoe UI';-inkscape-font-specification:'Segoe UI, Normal';letter-spacing:0px;word-spacing:0px;white-space:pre;shape-inside:url(#rect62766-3);display:inline;fill:#575757;fill-opacity:0.996078">
      <path
         d="m 283.11326,90.80449 q -7.3125,4.130206 -16.24999,4.130206 -10.39323,0 -16.82551,-6.703122 -6.39844,-6.703121 -6.39844,-17.739574 0,-11.273431 7.10937,-18.484365 7.14323,-7.244788 18.07812,-7.244788 7.92187,0 13.30468,2.572915 v 6.296872 q -5.89062,-3.723957 -13.94791,-3.723957 -8.15885,0 -13.37239,5.619789 -5.21354,5.619789 -5.21354,14.557284 0,9.208329 4.84114,14.489576 4.84115,5.247393 13.13541,5.247393 5.6875,0 9.85156,-2.268228 V 73.945123 h -10.6302 v -5.14583 h 16.3177 z"
         id="path136" />
      <path
         d="m 321.50386,78.176892 h -24.47655 q 0.13542,5.78906 3.11459,8.937496 2.97916,3.148435 8.1927,3.148435 5.85677,0 10.76562,-3.859373 v 5.213539 q -4.57031,3.317707 -12.08593,3.317707 -7.34635,0 -11.54427,-4.705727 -4.19791,-4.739581 -4.19791,-13.30468 0,-8.091142 4.57031,-13.169264 4.60416,-5.111977 11.40885,-5.111977 6.80468,0 10.52864,4.401039 3.72395,4.40104 3.72395,12.221348 z m -5.68749,-4.705727 q -0.0339,-4.807289 -2.33594,-7.481767 -2.26823,-2.674477 -6.33073,-2.674477 -3.92708,0 -6.66926,2.809894 -2.74219,2.809894 -3.38542,7.34635 z"
         id="path138" />
      <path
         d="m 344.38927,94.934696 q -7.68489,0 -12.28905,-4.841143 -4.57031,-4.874998 -4.57031,-12.898431 0,-8.734371 4.77343,-13.643222 4.77344,-4.908852 12.89843,-4.908852 7.7526,0 12.08593,4.773435 4.36719,4.773435 4.36719,13.236972 0,8.294267 -4.70573,13.304681 -4.67187,4.97656 -12.55989,4.97656 z m 0.40625,-31.619775 q -5.34895,0 -8.46354,3.656248 -3.11458,3.622394 -3.11458,10.020828 0,6.161455 3.14844,9.716141 3.14843,3.554685 8.42968,3.554685 5.38281,0 8.26041,-3.486977 2.91146,-3.486977 2.91146,-9.919266 0,-6.499996 -2.91146,-10.020828 -2.8776,-3.520831 -8.26041,-3.520831 z"
         id="path140" />
      <path
         d="m 368.42572,92.869593 v -5.95833 q 4.53645,3.35156 9.98697,3.35156 7.3125,0 7.3125,-4.874997 0,-1.38802 -0.64323,-2.335936 -0.60938,-0.981771 -1.69271,-1.726562 -1.04948,-0.744791 -2.50521,-1.320312 -1.42187,-0.609375 -3.08072,-1.252603 -2.30209,-0.914062 -4.0625,-1.828124 -1.72656,-0.947917 -2.91146,-2.098958 -1.15104,-1.184895 -1.76042,-2.674477 -0.57552,-1.489583 -0.57552,-3.486978 0,-2.437499 1.11719,-4.299477 1.11719,-1.895832 2.97917,-3.148436 1.86197,-1.286457 4.23176,-1.929686 2.40365,-0.643229 4.94271,-0.643229 4.5026,0 8.05729,1.557291 v 5.619789 q -3.82552,-2.505207 -8.80208,-2.505207 -1.55729,0 -2.80989,0.372395 -1.25261,0.338542 -2.16667,0.981771 -0.88021,0.643228 -1.38802,1.55729 -0.47396,0.880208 -0.47396,1.963541 0,1.354166 0.47396,2.268228 0.50781,0.914062 1.45573,1.624999 0.94791,0.710937 2.30208,1.286458 1.35417,0.57552 3.08073,1.252603 2.30208,0.880208 4.1302,1.828125 1.82813,0.914062 3.11459,2.098957 1.28645,1.151041 1.96354,2.674478 0.71093,1.523436 0.71093,3.622394 0,2.572915 -1.15104,4.468747 -1.11718,1.895833 -3.01302,3.148436 -1.89583,1.252604 -4.36718,1.861978 -2.47136,0.609375 -5.17969,0.609375 -5.34895,0 -9.27603,-2.065103 z"
         id="path142" />
      <path
         d="m 405.63143,89.111782 h -0.13542 V 110.0675 h -5.55208 V 59.455548 h 5.55208 v 6.093746 h 0.13542 q 4.09635,-6.906246 11.98437,-6.906246 6.70312,0 10.46093,4.671873 3.75781,4.638018 3.75781,12.458327 0,8.700516 -4.23177,13.947909 -4.23177,5.213539 -11.57812,5.213539 -6.73697,0 -10.39322,-5.822914 z m -0.13542,-13.981763 v 4.841143 q 0,4.299477 2.77604,7.312496 2.8099,2.979165 7.10937,2.979165 5.04427,0 7.88802,-3.859373 2.8776,-3.859373 2.8776,-10.731765 0,-5.789059 -2.67448,-9.072912 -2.67447,-3.283852 -7.24478,-3.283852 -4.84115,0 -7.78646,3.385415 -2.94531,3.35156 -2.94531,8.429683 z"
         id="path144" />
      <path
         d="m 465.51941,94.122196 h -5.55208 v -5.416663 h -0.13541 q -3.6224,6.229163 -10.66406,6.229163 -5.17969,0 -8.125,-2.742186 -2.91145,-2.742186 -2.91145,-7.278642 0,-9.716141 11.4427,-11.307286 l 10.39322,-1.455728 q 0,-8.835933 -7.14322,-8.835933 -6.26302,0 -11.30729,4.265622 v -5.687497 q 5.11198,-3.249998 11.78125,-3.249998 12.22134,0 12.22134,12.932285 z m -5.55208,-17.536449 -8.36197,1.151041 q -3.85937,0.541667 -5.82292,1.929687 -1.96354,1.354166 -1.96354,4.841143 0,2.539061 1.79427,4.16406 1.82813,1.591145 4.84115,1.591145 4.1302,0 6.80468,-2.877602 2.70833,-2.911457 2.70833,-7.346351 z"
         id="path146" />
      <path
         d="m 492.06107,93.783655 q -1.96354,1.083333 -5.17968,1.083333 -9.10677,0 -9.10677,-10.156245 V 64.195128 h -5.95833 v -4.73958 h 5.95833 V 50.99201 l 5.55208,-1.79427 v 10.257808 h 8.73437 v 4.73958 h -8.73437 v 19.533845 q 0,3.486977 1.1849,4.97656 1.18489,1.489582 3.92708,1.489582 2.09896,0 3.62239,-1.151041 z"
         id="path148" />
      <path
         d="m 502.31888,50.653469 q -1.48958,0 -2.53906,-1.015625 -1.04948,-1.015624 -1.04948,-2.572915 0,-1.557291 1.04948,-2.572915 1.04948,-1.049479 2.53906,-1.049479 1.52344,0 2.57292,1.049479 1.08333,1.015624 1.08333,2.572915 0,1.489582 -1.08333,2.539061 -1.04948,1.049479 -2.57292,1.049479 z m 2.70834,43.468727 h -5.55208 V 59.455548 h 5.55208 z"
         id="path150" />
      <path
         d="m 541.08188,94.122196 h -5.55208 v -5.416663 h -0.13541 q -3.6224,6.229163 -10.66406,6.229163 -5.17969,0 -8.125,-2.742186 -2.91145,-2.742186 -2.91145,-7.278642 0,-9.716141 11.4427,-11.307286 l 10.39322,-1.455728 q 0,-8.835933 -7.14322,-8.835933 -6.26302,0 -11.30729,4.265622 v -5.687497 q 5.11198,-3.249998 11.78125,-3.249998 12.22134,0 12.22134,12.932285 z m -5.55208,-17.536449 -8.36197,1.151041 q -3.85937,0.541667 -5.82292,1.929687 -1.96354,1.354166 -1.96354,4.841143 0,2.539061 1.79427,4.16406 1.82813,1.591145 4.84115,1.591145 4.1302,0 6.80468,-2.877602 2.70833,-2.911457 2.70833,-7.346351 z"
         id="path152" />
      <path
         d="m 557.0949,94.122196 h -5.55208 v -51.32289 h 5.55208 z"
         id="path154" />
    </g>
    <circle
       id="path64657"
       style="fill:#000000;stroke:#000000;stroke-width:0.264583"
       cx="61.468246"
       cy="32.320438"
       r="0" />
    <circle
       id="path64659"
       style="fill:#000000;stroke:#000000;stroke-width:0.264583"
       cx="29.502735"
       cy="25.880785"
       r="0" />
    <circle
       id="path64657-8"
       style="fill:#000000;stroke:#000000;stroke-width:0.264583"
       cx="61.505653"
       cy="32.560036"
       r="0" />
    <circle
       id="path64659-9"
       style="fill:#000000;stroke:#000000;stroke-width:0.264583"
       cx="29.540146"
       cy="26.120386"
       r="0" />
    <g
       id="path64675"
       transform="translate(-0.87362338,-0.25889933)" />
    <circle
       id="path64657-9"
       style="fill:#000000;stroke:#000000;stroke-width:0.264583"
       cx="61.531075"
       cy="32.508667"
       r="0" />
    <circle
       id="path64659-5"
       style="fill:#000000;stroke:#000000;stroke-width:0.264583"
       cx="29.565531"
       cy="26.06901"
       r="0" />
    <g
       id="path64675-5"
       transform="translate(-0.84825018,-0.31028897)" />
    <circle
       id="path64657-97"
       style="fill:#000000;stroke:#000000;stroke-width:0.264583"
       cx="61.854721"
       cy="32.59166"
       r="0" />
    <circle
       id="path64659-93"
       style="fill:#000000;stroke:#000000;stroke-width:0.264583"
       cx="29.889206"
       cy="26.15202"
       r="0" />
    <g
       id="path64675-6"
       transform="translate(-0.52456583,-0.22727292)" />
    <circle
       id="path64657-6"
       style="fill:#000000;stroke:#000000;stroke-width:0.264583"
       cx="61.528259"
       cy="32.482868"
       r="0" />
    <circle
       id="path64659-7"
       style="fill:#000000;stroke:#000000;stroke-width:0.264583"
       cx="29.562717"
       cy="26.043211"
       r="0" />
    <g
       id="path64675-3"
       transform="translate(-0.85106506,-0.3360818)" />
    <path
       id="path38012"
       style="fill:#106dd0;stroke-width:1.90498;stroke-opacity:0.996078"
       d="M 51.669645,26.063831 A 25.574499,25.574499 0 0 1 26.095146,51.63833 25.574499,25.574499 0 0 1 0.52064705,26.063831 25.574499,25.574499 0 0 1 26.095146,0.4893322 25.574499,25.574499 0 0 1 51.669645,26.063831 Z" />
    <path
       id="path47820"
       style="fill:#ffffff;fill-opacity:0.996078;stroke-width:1.965;filter:url(#filter48949-49)"
       transform="matrix(0.51149047,0,0,0.51149047,-1.9566343,-1.8043901)"
       d="m 96.454048,50.14053 a 30,30 0 0 1 -30,30 30,30 0 0 1 -30,-30 30,30 0 0 1 30,-30 30,30 0 0 1 30,30 z" />
    <path
       style="color:#000000;fill:#000000;stroke-width:1.239;-inkscape-stroke:none"
       d="m 33.031807,33.412495 c -0.519949,-0.04046 -2.509704,-0.211765 -1.054901,0.199091 1.099111,0.170982 1.973165,0.850188 3.274773,0.395946 -0.570226,-0.297113 -1.44332,-0.550426 -2.219875,-0.595015 z"
       id="path13181-4" />
    <circle
       id="path64657-98"
       style="fill:#000000;stroke:#000000;stroke-width:0.264583"
       cx="61.63755"
       cy="32.478397"
       r="0" />
    <circle
       id="path64659-1"
       style="fill:#000000;stroke:#000000;stroke-width:0.264583"
       cx="29.67201"
       cy="26.038729"
       r="0" />
    <g
       id="path64675-33"
       transform="translate(-0.7417719,-0.34056891)" />
    <path
       style="color:#000000;fill:#000000;stroke-width:1.33023;-inkscape-stroke:none"
       d="m 44.90978,22.048276 c -0.24523,0.500906 -0.628255,2.453278 0.09144,1.065732 0.347649,-0.683343 1.37729,-2.346271 0.924707,-2.622395 -0.359463,0.505816 -0.810821,0.955914 -1.016145,1.556663 z"
       id="path13191" />
    <path
       style="color:#000000;fill:#000000;stroke-width:1.33023;-inkscape-stroke:none"
       d="m 47.403065,25.367981 c -0.735562,0.06214 -2.46836,0.930789 -0.741696,0.782875 1.200845,-0.237841 2.509444,-0.08846 3.626403,-0.62945 -0.808153,-0.373757 -2.003573,-0.358501 -2.884707,-0.153425 z"
       id="path13189" />
    <path
       style="color:#000000;fill:#000000;stroke-width:1.33023;-inkscape-stroke:none"
       d="m 44.834017,28.235493 c -0.605759,-0.143115 -2.295654,-0.557557 -0.894862,0.237184 0.927514,0.281781 2.3125,0.88392 3.077481,0.654171 -0.638387,-0.51533 -1.438458,-0.614026 -2.182619,-0.891355 z"
       id="path13187" />
    <path
       style="color:#000000;fill:#000000;stroke-width:1.33023;-inkscape-stroke:none"
       d="m 40.595956,31.471617 c -0.506556,-0.149694 -2.261281,-0.189488 -0.828843,0.202896 0.949405,0.353701 2.55138,0.789867 3.237033,0.49678 -0.801645,-0.249815 -1.562431,-0.60866 -2.408191,-0.699678 z"
       id="path13183" />
    <path
       style="color:#000000;fill:#000000;stroke-width:1.33023;-inkscape-stroke:none"
       d="m 42.912435,30.390847 c -0.559662,-0.01719 -2.735239,0.08506 -1.154317,0.452331 1.179159,0.03749 2.540624,0.357565 3.512884,-0.502522 -0.626519,-0.289894 -1.671643,-0.110361 -2.358569,0.0502 z"
       id="path13181" />
    <path
       style="color:#000000;fill:#000000;stroke-width:1.33023;-inkscape-stroke:none"
       d="m 37.115221,29.337245 c -0.539943,0.131602 -2.246196,1.557548 -0.727497,0.856515 0.8318,-0.280011 2.408984,-0.726135 2.510463,-1.451961 -0.606772,0.155411 -1.196442,0.382752 -1.782966,0.595446 z"
       id="path13179" />
    <path
       style="color:#000000;fill:#000000;stroke-width:1.33023;-inkscape-stroke:none"
       d="m 42.976291,25.832462 c -1.261516,1.200354 -2.316841,1.155704 -3.907257,1.329716 -0.761399,0.217364 -1.190246,0.111186 -1.949666,0.08391 -1.399751,-0.208909 -1.169242,-0.06462 -2.531189,-0.444119 -1.213548,-0.350884 -2.672395,-0.284369 -3.110901,-0.170643 -0.766869,-0.0037 -2.243711,0.154962 -2.804382,0.109138 0.235962,-0.417045 0.908494,-1.429832 1.503785,-1.833997 0.30562,-0.600546 0.865724,-1.189556 1.475363,-1.349274 1.317929,-0.987989 2.886836,-0.572292 5.092198,-0.465087 1.813924,-0.477361 0.009,-0.208944 -0.558106,-0.295072 -1.114158,-0.130905 -2.129056,-0.195691 -3.243215,-0.326596 -0.262776,0.05398 -0.617647,0.07936 -0.833006,0.114534 -0.215359,0.03517 0.101219,-0.291769 0.09142,-0.488267 -0.0226,-0.455528 1.083044,-1.148794 0.858885,-1.314892 -0.05609,-0.04156 -1.429235,1.029074 -1.453499,1.187077 -0.0222,0.144556 -0.384264,0.603404 -0.521473,0.669178 -0.137209,0.06578 -1.069552,0.545676 -1.215104,0.645569 -0.145552,0.09989 -0.298062,0.219492 -0.463108,0.364088 -0.165046,0.144597 -0.342628,0.314192 -0.53832,0.514079 -0.59541,0.746955 -0.309556,0.328241 -1.154452,1.128096 -0.473904,0.293649 -0.413458,0.707298 -2.471168,1.647963 -1.150766,0.380293 -1.556696,0.62229 -2.28718,1.619298 -1.140092,1.425391 -1.314888,3.690493 -3.532621,4.386024 -1.846191,0.167231 -2.962228,1.391971 -4.678895,1.697297 0.1451,-0.237696 0.314195,-1.720412 0.426441,-1.898835 0.765234,-1.662947 0.72113,-2.198026 1.977658,-3.631305 0.376419,-0.386965 0.57526,-1.846916 0.472555,-2.317021 -0.28936,-0.125575 -0.290833,0.291599 -0.498914,1.162569 -1.093198,1.597553 -2.747378,2.546343 -3.395658,4.518589 -0.240656,0.801342 -0.742017,2.007735 -1.62574,2.87993 -1.578058,1.185046 -2.8123604,1.372335 -4.0400654,2.343366 -0.3706337,0.356128 -1.6291321,1.359708 -1.6728441,1.375798 -1.5273631,0.736308 -0.8791414,0.362348 -1.6613151,1.018017 1.5867501,2.415703 3.5715038,4.544959 5.8699236,6.29729 0.558479,-0.70278 1.141892,-0.941063 1.623399,-1.576841 0.128977,0.009 0.679546,-0.95403 1.288052,-1.325308 1.17515,-1.397172 1.863371,-1.795303 2.904731,-3.318661 0.300005,-0.653242 1.176471,-1.17622 1.949094,-1.316221 0.828892,-0.363249 0.696862,-0.28393 1.698999,-0.881724 0.958141,-0.669867 1.59178,-0.64868 2.220829,-0.8473 0.924986,-0.503802 1.280001,-0.663395 1.574013,-1.087526 0.294012,-0.424131 0.524669,-0.851054 1.27178,-1.494789 0.725183,-0.588881 1.613665,-0.535718 2.459799,-0.826306 1.266257,-0.138951 1.138447,-0.127184 2.399855,-0.164848 0.726922,-0.195289 1.875319,-0.770503 2.395277,-0.801663 2.109749,-0.734913 2.7764,-0.772757 4.339885,-1.313966 1.609482,-0.413065 3.535726,-0.965006 4.757466,-1.525676 0.649182,-0.419413 -1.397141,0.180656 -2.029249,0.338402 -1.04692,0.261274 -2.27385,0.414681 -3.172807,0.589498 -0.399166,-0.177251 -0.67166,0.413084 -2.426944,0.659328 -1.126095,0.190019 -3.917065,1.032806 -4.471759,0.955971 -1.090183,-0.01096 -1.833932,0.05489 -3.08725,0.144178 -0.646109,0.09908 -1.009254,-0.214193 -0.861335,-0.6992 0.179281,-0.749505 0.471177,-2.012022 2.241096,-2.984316 2.613076,-0.758539 3.552803,-1.001574 6.053669,-0.881023 2.05972,0.313819 4.633708,0.314394 8.279661,-0.355744 1.438432,-1.153376 2.94045,-0.150585 3.716424,-0.513732 -1.294846,-0.651781 -2.322752,-0.467111 -1.456995,-1.358029 0.346169,-0.35623 0.656402,-0.800223 1.035047,-1.134216 0.378645,-0.33399 0.373139,-0.43532 0.856647,-0.672757 0.73133,-0.500884 1.240742,-1.067015 0.09847,-0.482653 -1.040928,0.4719 -0.416633,0.127072 -1.52926,0.979275 z"
       id="path13177" />
    <path
       style="color:#000000;fill:#000000;stroke-width:1.33023;-inkscape-stroke:none"
       d="m 35.775598,21.165949 c -0.682296,-0.02861 -2.097379,0.94938 -0.544322,0.643908 0.874719,0.03387 2.805493,-0.357564 2.649945,-1.253721 -0.747761,0.01667 -1.410771,0.394793 -2.105623,0.609813 z"
       id="path13175" />
    <path
       style="color:#000000;fill:#000000;stroke-width:1.33023;-inkscape-stroke:none"
       d="m 33.086429,19.711017 c -0.481905,1.243588 1.151962,-0.628853 1.127113,-1.08432 0.435101,-0.434117 0.653561,-1.734128 -0.126136,-0.750982 -0.448693,0.557921 -0.788639,1.150298 -1.000977,1.835302 z"
       id="path13173" />
    <path
       style="color:#000000;fill:#000000;stroke-width:1.33023;-inkscape-stroke:none"
       d="m 40.791024,21.176981 c -0.879453,-0.09971 -2.569497,0.79825 -2.615909,1.229124 0.997434,-0.157261 2.702569,-0.537999 3.171828,-1.251524 -0.183541,-0.04325 -0.371993,0.01204 -0.555919,0.0224 z"
       id="path13171" />
    <path
       style="color:#000000;fill:#000000;stroke-width:1.33023;-inkscape-stroke:none"
       d="m 33.911756,23.713508 c -0.642732,-0.149519 -2.22514,-0.117343 -0.778167,0.331633 0.754691,0.175724 2.239238,0.817925 2.635713,0.175949 -0.568254,-0.303048 -1.225483,-0.419395 -1.857546,-0.507582 z"
       id="path13169" />
    <path
       style="color:#000000;fill:#000000;stroke-width:1.33023;-inkscape-stroke:none"
       d="m 19.366147,27.579884 c -0.617941,0.16432 -2.17508,1.363819 -0.584355,0.66768 0.921705,-0.119768 2.928122,-1.057676 2.588799,-1.878234 -0.753949,0.251853 -1.315856,0.846404 -2.004444,1.210554 z"
       id="path13167" />
    <path
       style="color:#000000;fill:#000000;stroke-width:1.33023;-inkscape-stroke:none"
       d="m 14.958266,28.056424 c 0.828654,-0.256125 0.524444,-2.442039 0.137191,-3.331335 -0.949876,-0.470213 -0.02362,2.273223 -0.144892,3.035751 l 0.0077,0.295581 z"
       id="path13165" />
    <path
       style="color:#000000;fill:#000000;stroke-width:1.33023;-inkscape-stroke:none"
       d="m 20.999273,24.509906 c -0.853474,0.519885 -1.773749,1.298274 -2.156223,2.232065 1.323523,-0.741301 2.666298,-1.511095 3.717486,-2.623488 -0.261637,-0.491882 -1.143107,0.318159 -1.561263,0.391423 z"
       id="path13163" />
    <path
       style="color:#000000;fill:#000000;stroke-width:1.33023;-inkscape-stroke:none"
       d="m 48.048408,21.525619 c -0.722756,0.376754 -1.992955,1.56151 -0.431565,0.94107 0.980224,-0.406288 2.536293,-0.68468 2.803998,-1.753353 -0.808011,0.165104 -1.556523,0.614611 -2.372433,0.812283 z"
       id="path1300-6-6" />
  </g>
</svg>
