<?xml version="1.0" encoding="UTF-8" standalone="no"?>
<!-- Created with Inkscape (http://www.inkscape.org/) -->

<svg
   width="53mm"
   height="53mm"
   viewBox="0 0 53 53"
   version="1.1"
   id="svg37476"
   sodipodi:docname="leftfield-icon.svg"
   inkscape:version="1.2.2 (732a01da63, 2022-12-09)"
   xmlns:inkscape="http://www.inkscape.org/namespaces/inkscape"
   xmlns:sodipodi="http://sodipodi.sourceforge.net/DTD/sodipodi-0.dtd"
   xmlns="http://www.w3.org/2000/svg"
   xmlns:svg="http://www.w3.org/2000/svg">
  <sodipodi:namedview
     id="namedview37478"
     pagecolor="#3e3e3e"
     bordercolor="#666666"
     borderopacity="1.0"
     inkscape:showpageshadow="2"
     inkscape:pageopacity="0"
     inkscape:pagecheckerboard="false"
     inkscape:deskcolor="#d1d1d1"
     inkscape:document-units="mm"
     showgrid="false"
     inkscape:zoom="0.60284127"
     inkscape:cx="-167.53996"
     inkscape:cy="-11.61168"
     inkscape:window-width="1920"
     inkscape:window-height="1137"
     inkscape:window-x="-8"
     inkscape:window-y="-8"
     inkscape:window-maximized="1"
     inkscape:current-layer="layer1"
     showborder="false" />
  <defs
     id="defs37473">
    <inkscape:path-effect
       effect="spiro"
       id="path-effect73480"
       is_visible="true"
       lpeversion="1" />
    <inkscape:path-effect
       effect="simplify"
       id="path-effect73478"
       is_visible="true"
       lpeversion="1"
       steps="1"
       threshold="0.00924528"
       smooth_angles="360"
       helper_size="0"
       simplify_individual_paths="false"
       simplify_just_coalesce="false" />
    <inkscape:path-effect
       effect="spiro"
       id="path-effect73474"
       is_visible="true"
       lpeversion="1" />
    <inkscape:path-effect
       effect="simplify"
       id="path-effect73472"
       is_visible="true"
       lpeversion="1"
       steps="1"
       threshold="0.00924528"
       smooth_angles="360"
       helper_size="0"
       simplify_individual_paths="false"
       simplify_just_coalesce="false" />
    <inkscape:path-effect
       effect="spiro"
       id="path-effect73468"
       is_visible="true"
       lpeversion="1" />
    <inkscape:path-effect
       effect="simplify"
       id="path-effect73466"
       is_visible="true"
       lpeversion="1"
       steps="1"
       threshold="0.00924528"
       smooth_angles="360"
       helper_size="0"
       simplify_individual_paths="false"
       simplify_just_coalesce="false" />
    <inkscape:path-effect
       effect="spiro"
       id="path-effect73462"
       is_visible="true"
       lpeversion="1" />
    <inkscape:path-effect
       effect="simplify"
       id="path-effect73460"
       is_visible="true"
       lpeversion="1"
       steps="1"
       threshold="0.00924528"
       smooth_angles="360"
       helper_size="0"
       simplify_individual_paths="false"
       simplify_just_coalesce="false" />
    <inkscape:path-effect
       effect="spiro"
       id="path-effect73336"
       is_visible="true"
       lpeversion="1" />
    <inkscape:path-effect
       effect="simplify"
       id="path-effect73334"
       is_visible="true"
       lpeversion="1"
       steps="1"
       threshold="0.00924528"
       smooth_angles="360"
       helper_size="0"
       simplify_individual_paths="false"
       simplify_just_coalesce="false" />
    <rect
       x="240.45615"
       y="31.669834"
       width="472.7016"
       height="174.77057"
       id="rect62766" />
    <inkscape:path-effect
       effect="spiro"
       id="path-effect59574"
       is_visible="true"
       lpeversion="1" />
    <inkscape:path-effect
       effect="simplify"
       id="path-effect59572"
       is_visible="true"
       lpeversion="1"
       steps="1"
       threshold="0.00924528"
       smooth_angles="360"
       helper_size="0"
       simplify_individual_paths="false"
       simplify_just_coalesce="false" />
    <inkscape:path-effect
       effect="spiro"
       id="path-effect58803"
       is_visible="true"
       lpeversion="1" />
    <inkscape:path-effect
       effect="simplify"
       id="path-effect58801"
       is_visible="true"
       lpeversion="1"
       steps="1"
       threshold="0.00924528"
       smooth_angles="360"
       helper_size="0"
       simplify_individual_paths="false"
       simplify_just_coalesce="false" />
    <inkscape:path-effect
       effect="spiro"
       id="path-effect58383"
       is_visible="true"
       lpeversion="1" />
    <inkscape:path-effect
       effect="simplify"
       id="path-effect58381"
       is_visible="true"
       lpeversion="1"
       steps="1"
       threshold="0.00924528"
       smooth_angles="360"
       helper_size="0"
       simplify_individual_paths="false"
       simplify_just_coalesce="false" />
    <inkscape:path-effect
       effect="spiro"
       id="path-effect57135"
       is_visible="true"
       lpeversion="1" />
    <inkscape:path-effect
       effect="simplify"
       id="path-effect57133"
       is_visible="true"
       lpeversion="1"
       steps="1"
       threshold="0.00924528"
       smooth_angles="360"
       helper_size="0"
       simplify_individual_paths="false"
       simplify_just_coalesce="false" />
    <inkscape:path-effect
       effect="skeletal"
       id="path-effect57129"
       is_visible="true"
       lpeversion="1"
       pattern="M 0,4.9921385 C 0,2.2364781 2.2364781,0 4.9921385,0 7.747799,0 9.984277,2.2364781 9.984277,4.9921385 9.984277,7.747799 7.747799,9.984277 4.9921385,9.984277 2.2364781,9.984277 0,7.747799 0,4.9921385 Z"
       copytype="single_stretched"
       prop_scale="1"
       scale_y_rel="false"
       spacing="0"
       normal_offset="0"
       tang_offset="0"
       prop_units="false"
       vertical_pattern="false"
       hide_knot="false"
       fuse_tolerance="0" />
    <inkscape:path-effect
       effect="spiro"
       id="path-effect57127"
       is_visible="true"
       lpeversion="1" />
    <inkscape:path-effect
       effect="simplify"
       id="path-effect57125"
       is_visible="true"
       lpeversion="1"
       steps="1"
       threshold="0.00924528"
       smooth_angles="360"
       helper_size="0"
       simplify_individual_paths="false"
       simplify_just_coalesce="false" />
    <inkscape:path-effect
       effect="powerstroke"
       id="path-effect52835"
       is_visible="true"
       lpeversion="1"
       offset_points="0,1.017866"
       not_jump="false"
       sort_points="true"
       interpolator_type="CubicBezierJohan"
       interpolator_beta="0.2"
       start_linecap_type="zerowidth"
       linejoin_type="extrp_arc"
       miter_limit="4"
       scale_width="1"
       end_linecap_type="zerowidth" />
    <inkscape:path-effect
       effect="spiro"
       id="path-effect52833"
       is_visible="true"
       lpeversion="1" />
    <inkscape:path-effect
       effect="simplify"
       id="path-effect52831"
       is_visible="true"
       lpeversion="1"
       steps="1"
       threshold="0.00924528"
       smooth_angles="360"
       helper_size="0"
       simplify_individual_paths="false"
       simplify_just_coalesce="false" />
    <inkscape:path-effect
       effect="spiro"
       id="path-effect52819"
       is_visible="true"
       lpeversion="1" />
    <inkscape:path-effect
       effect="simplify"
       id="path-effect52817"
       is_visible="true"
       lpeversion="1"
       steps="1"
       threshold="0.00924528"
       smooth_angles="360"
       helper_size="0"
       simplify_individual_paths="false"
       simplify_just_coalesce="false" />
    <filter
       style="color-interpolation-filters:sRGB"
       inkscape:label="Drop Shadow"
       id="filter48949"
       x="-0.164"
       y="-0.164"
       width="1.328"
       height="1.328">
      <feFlood
         flood-opacity="1"
         flood-color="rgb(255,255,255)"
         result="flood"
         id="feFlood48939" />
      <feComposite
         in="flood"
         in2="SourceGraphic"
         operator="in"
         result="composite1"
         id="feComposite48941" />
      <feGaussianBlur
         in="composite1"
         stdDeviation="4.1"
         result="blur"
         id="feGaussianBlur48943" />
      <feOffset
         dx="0"
         dy="0"
         result="offset"
         id="feOffset48945" />
      <feComposite
         in="SourceGraphic"
         in2="offset"
         operator="over"
         result="composite2"
         id="feComposite48947" />
    </filter>
    <rect
       x="240.45615"
       y="31.669834"
       width="281.50964"
       height="83.279938"
       id="rect62766-8" />
    <rect
       x="240.45615"
       y="31.669834"
       width="281.50964"
       height="83.279938"
       id="rect62766-4" />
    <rect
       x="240.45615"
       y="31.669834"
       width="453.9343"
       height="139.58186"
       id="rect62766-3" />
  </defs>
  <g
     inkscape:label="Layer 1"
     inkscape:groupmode="layer"
     id="layer1">
    <circle
       style="fill:#2f8cef;fill-opacity:1;stroke:none;stroke-width:1.90498;stroke-dasharray:none;stroke-opacity:0.996078"
       id="path38012"
       cx="26.914518"
       cy="26.404413"
       r="25.574499" />
    <circle
       style="fill:#ffffff;fill-opacity:0.996078;stroke:none;stroke-width:1.965;stroke-dasharray:none;stroke-opacity:1;filter:url(#filter48949)"
       id="path47820"
       cx="66.454048"
       cy="50.14053"
       r="30"
       transform="matrix(0.51149047,0,0,0.51149047,-1.2148635,-1.4638218)" />
    <path
       style="fill:#000000;fill-opacity:1;stroke:none;stroke-width:1.00508;stroke-dasharray:none;stroke-opacity:1"
       id="path49365"
       d="m 10.691557,40.505247 c 0.632875,-0.295345 1.225302,-0.672784 1.867008,-0.949291 0.594543,-0.205634 1.093823,-0.57001 1.624589,-0.889937 0.530329,-0.39574 1.059697,-0.790417 1.59874,-1.173774 0.453924,-0.274614 0.873747,-0.600044 1.326683,-0.876418 0.32175,-0.342202 0.79576,-0.340857 1.21919,-0.458188 0.646083,-0.235915 1.339437,-0.318449 2.021363,-0.379823 0.535998,0.01003 1.019554,-0.09049 1.441053,-0.431247 0.23664,-0.329753 0.528529,-0.618423 0.920239,-0.738311 0.839514,-0.214719 1.675574,-0.44447 2.510789,-0.676938 0.690439,-0.211122 1.120847,-0.738873 1.41282,-1.370175 0.2614,-0.657833 0.446297,-1.343885 0.583216,-2.037952 0.09809,-0.489041 0.265703,-0.948447 0.544661,-1.362207 0.298679,-0.415586 0.450881,-0.715143 0.993299,-0.768256 0.537559,-0.194495 1.112125,-0.204223 1.666446,-0.31421 0.693989,-0.138644 1.401723,-0.161318 2.106853,-0.178899 0.866352,0.0018 1.724623,-0.0058 2.585319,-0.101717 0.734592,-0.117178 1.45875,-0.251943 2.202851,-0.306433 0.694512,-0.07574 1.400752,0.0062 2.09019,-0.102987 0.715079,-0.07648 1.423361,-0.194656 2.136926,-0.2854 0.811418,-0.09035 1.619118,-0.205055 2.415503,-0.385895 0.572839,-0.191609 0.998256,-0.564429 1.300946,-1.078155 0.205568,-0.421486 0.232354,-0.891437 0.34922,-1.339128 0.122921,-0.369568 0.443574,-0.599042 0.686599,-0.883786 0.294951,-0.216746 0.499527,-0.523244 0.778013,-0.758808 0.368186,-0.356103 0.858567,-0.530767 1.301855,-0.770369 0.337119,-0.243653 0.164337,-0.129089 0.518227,-0.343889 0,0 -5.009594,-0.512439 -5.009594,-0.512439 v 0 c -0.351414,0.21896 -0.175287,0.116488 -0.527807,0.30838 -0.479993,0.244479 -0.94216,0.519165 -1.323578,0.905928 -0.262042,0.268983 -0.53369,0.527327 -0.789726,0.801808 -0.30759,0.326856 -0.581882,0.688248 -0.698297,1.129721 -0.09285,0.391824 -0.103685,0.813326 -0.33027,1.159122 -0.320367,0.386391 -0.743088,0.609422 -1.237438,0.700621 -0.791849,0.161126 -1.597104,0.243593 -2.397699,0.349232 -0.716532,0.103547 -1.4347,0.189146 -2.154945,0.262833 -0.688195,0.02212 -1.377265,0.03478 -2.062882,0.104786 -0.740434,0.08114 -1.46711,0.24318 -2.209497,0.307536 -0.854026,0.06817 -1.711208,0.03962 -2.56693,0.0739 -0.72198,0.03233 -1.439981,0.09783 -2.150056,0.23805 -0.576319,0.07727 -1.14585,0.191685 -1.691898,0.397665 -0.461233,0.26431 -0.753373,0.66598 -1.029074,1.115039 -0.266992,0.481721 -0.430695,0.998624 -0.527477,1.541146 -0.124939,0.649869 -0.301412,1.295779 -0.587384,1.894622 -0.308043,0.524119 -0.762404,0.825842 -1.356796,0.962855 -0.852119,0.248493 -1.724093,0.440767 -2.55034,0.769088 -0.339219,0.233158 -0.61429,0.530799 -0.940892,0.770918 -0.449459,0.163222 -0.909264,0.180311 -1.383304,0.224176 -0.69303,0.09937 -1.375802,0.245454 -2.046717,0.447125 -0.467689,0.114604 -0.87131,0.312618 -1.24385,0.62145 -0.432144,0.305018 -0.877861,0.590854 -1.308533,0.898239 -0.530265,0.382124 -1.0399717,0.793905 -1.5955504,1.140015 -0.5144267,0.325963 -1.0580974,0.591027 -1.6161741,0.835034 -0.6236527,0.324643 -1.2373487,0.671387 -1.8946109,0.926371 0,0 5.0287214,0.588971 5.0287214,0.588972 z" />
    <path
       style="fill:#000000;fill-opacity:1;stroke:none;stroke-width:1.00508;stroke-dasharray:none;stroke-opacity:1"
       id="path52797"
       d="m 11.793973,42.847883 c 0.550353,-0.488115 1.074145,-1.008726 1.533713,-1.583779 0.291203,-0.303247 0.424194,-0.718276 0.669063,-1.052693 0.09135,-0.124758 0.214135,-0.223312 0.315121,-0.340402 0.317211,-0.280737 0.76018,-0.322219 1.160691,-0.412604 0.08351,-0.01437 0.168896,-0.02036 0.250535,-0.04307 0.969232,-0.269438 -0.502085,0.07759 0.467521,-0.155099 0.268709,-0.06448 0.53947,-0.09118 0.808932,-0.155186 0.771044,-0.104196 1.528234,-0.268957 2.28405,-0.450751 0.811327,-0.151243 1.556919,-0.519245 2.317159,-0.822477 0.63769,-0.161994 1.154161,-0.534313 1.622742,-0.980783 0.379401,-0.360959 0.760291,-0.738009 1.186623,-1.04452 0.336203,-0.323543 0.765676,-0.545008 1.191047,-0.731447 0.456886,-0.262471 0.939554,-0.498329 1.335195,-0.850066 0.450608,-0.223731 0.839247,-0.552573 1.29138,-0.774299 0.585661,-0.154384 1.203115,-0.165304 1.806297,-0.179145 0.09398,-0.001 0.187956,-0.0015 0.281934,-0.0026 -0.193619,-0.0015 0.772301,10e-4 0.579226,10e-4 -8.199733,0.0041 -5.875763,-0.0015 -4.145349,0.002 2.489397,0.785521 4.294741,-0.08726 6.509537,-0.196658 1.729656,-0.0586 4.085295,-0.07598 -4.09498,-0.0051 -0.120556,0.001 0.240627,0.01555 0.36081,0.02506 0.262864,0.02087 0.525352,0.04619 0.788048,0.06908 0.849702,0.09962 1.697318,0.209164 2.550658,0.274573 0.688037,0.05018 1.37814,0.05755 2.067675,0.06336 2.339496,0.0046 4.678992,-0.0015 7.018488,-5.11e-4 0.345681,2.71e-4 0.691361,4.04e-4 1.037037,5.11e-4 0,0 -4.992004,-0.790447 -4.992004,-0.790447 v 0 c -0.340683,4.09e-4 -0.681362,10e-4 -1.02204,0.002 -0.320761,10e-4 -0.641521,0.002 -0.962282,0.0026 -0.121663,1.33e-4 -0.486648,2.71e-4 -0.364984,2.71e-4 5.02303,-7.2e-5 6.10471,10e-4 4.261329,-5.12e-4 -0.695668,5.12e-4 -1.391689,0.0015 -2.086825,-0.02956 -0.852731,-0.0446 -1.706194,-0.110671 -2.546972,-0.266021 -0.370201,-0.0288 -0.757742,-0.101536 -1.128015,-0.105965 -1.952656,-0.02338 -3.917213,-0.131965 -5.869377,0.0072 -1.901907,0.17409 -5.102345,0.896013 3.454763,0.162976 -2.225795,-0.01212 -4.453073,-0.05986 -6.677524,0.02082 -0.631433,0.04368 -1.289624,0.08595 -1.848347,0.412768 -0.436868,0.281356 -0.890602,0.536758 -1.308052,0.845253 -0.422563,0.275556 -0.853526,0.538303 -1.3117,0.751851 -0.431407,0.238579 -0.845427,0.491992 -1.202139,0.836951 -0.401425,0.348556 -0.799987,0.700083 -1.18501,1.066678 -0.481039,0.373961 -1.005014,0.629609 -1.584024,0.82194 -0.743924,0.319558 -1.50585,0.589978 -2.303314,0.74318 -0.760996,0.177155 -1.533243,0.288128 -2.300114,0.435314 -0.523474,0.09511 -1.028596,0.25105 -1.544807,0.376882 -0.4738557,0.141974 -0.8960467,0.301677 -1.1955904,0.723692 -0.3552747,0.442639 -0.5875857,0.965178 -0.9594924,1.396057 -0.4694767,0.54618 -0.9788084,1.05854 -1.558991,1.488315 0,0 5.0423588,0.442874 5.0423588,0.442874 z" />
    <path
       style="fill:#000000;fill-opacity:1;stroke:none;stroke-width:1.00508;stroke-dasharray:none;stroke-opacity:1"
       id="path52799"
       d="m 13.56664,44.571202 c 0.400544,-0.534733 0.830895,-1.057368 1.39237,-1.429488 0.662903,-0.587431 1.182265,-1.299032 1.723627,-1.991693 0.303498,-0.23105 0.463179,-0.593682 0.738042,-0.849186 0.0069,-0.0064 0.341065,-0.258237 0.344488,-0.26082 0.356291,-0.342079 0.742837,-0.558015 1.224532,-0.657117 0.441276,-0.06377 0.888736,-0.05447 1.333379,-0.05225 0.07483,5.11e-4 0.299349,0.0015 0.22451,0.0015 -11.5906864,0.0064 -0.816188,0.01269 0.430728,-0.05664 0.07694,-0.0041 0.281736,-0.455687 0.303466,-0.499675 0,0 -5.05126,-0.310199 -5.05126,-0.310199 v 0 c -0.03946,0.03038 -0.07086,0.07628 -0.118387,0.09118 -0.04642,0.01453 -0.194328,-0.0083 -0.145686,-0.0084 9.897377,-0.03002 2.695416,0.01637 -0.640086,-0.0026 -0.457502,0.01458 -0.920591,0.03785 -1.353251,0.202857 -0.467353,0.206039 -0.861322,0.514442 -1.245112,0.848778 -0.400952,0.365838 -0.708128,0.819203 -1.060373,1.230104 -0.493316,0.692036 -1.036331,1.352191 -1.7290617,1.856547 -0.5205077,0.468356 -0.9617717,1.009349 -1.4214854,1.535376 0,0 5.0495601,0.351379 5.0495601,0.351379 z" />
    <path
       style="fill:#000000;fill-opacity:1;stroke:none;stroke-width:1.00508;stroke-dasharray:none;stroke-opacity:1"
       id="path52801"
       d="m 32.446576,26.514061 c 0.58492,-0.402114 1.127555,-0.858737 1.69045,-1.292276 0.509608,-0.282314 0.806999,-0.792637 1.335231,-1.04399 0.513792,-0.135363 1.053404,-0.05382 1.567201,-0.170873 0.446378,-0.128618 0.833627,-0.031 1.201133,-0.34624 0.161207,-0.149138 0.375971,-0.173441 0.569131,-0.256445 0,0 -5.047332,-0.593018 -5.047332,-0.593018 v 0 c -0.197763,0.08272 -0.372237,0.20348 -0.563995,0.298025 -0.387945,0.05442 -0.775215,0.108351 -1.160823,0.179798 -0.549877,0.03276 -1.123649,0.06661 -1.5961,0.380506 -0.44745,0.352805 -0.822023,0.790786 -1.309888,1.095146 -0.560435,0.438556 -1.109835,0.891964 -1.72641,1.2523 0,0 5.041402,0.497067 5.041402,0.497067 z" />
    <path
       style="fill:#000000;fill-opacity:1;stroke:none;stroke-width:1.00508;stroke-dasharray:none;stroke-opacity:1"
       id="path52803"
       d="m 27.082939,26.231817 c -0.497411,0.35957 -1.112229,0.434198 -1.665728,0.655319 0,0 5.009708,0.619181 5.009708,0.619181 v 0 c 0.598629,-0.184395 1.174199,-0.428005 1.697423,-0.777433 0,0 -5.041403,-0.497067 -5.041403,-0.497067 z" />
    <path
       style="fill:#000000;fill-opacity:1;fill-rule:nonzero;stroke:none;stroke-width:0.135332px;stroke-linecap:butt;stroke-linejoin:miter;stroke-opacity:1"
       d="m 13.580517,35.691114 c 0,0 0.679519,0.757829 0.679519,0.757829 0.658508,-0.590461 1.454624,-1.563476 1.956588,-2.927308 0.08792,-0.276585 0.153671,-0.548874 0.217934,-0.818414 0.05923,-0.248439 0.115926,-0.488865 0.185936,-0.716282 0.09406,-0.352724 0.236751,-0.710555 0.42416,-1.081786 0.272418,-0.482771 0.616018,-0.964929 0.923125,-1.454454 0.06703,-0.140475 0.131011,-0.276202 0.187044,-0.418558 0.06014,-0.152783 0.104995,-0.298211 0.132573,-0.444278 0.07571,-0.279007 0.06913,-0.549833 0.02521,-0.777416 -0.0563,-0.291721 -0.173961,-0.521781 -0.287411,-0.691207 0.114992,0.171729 0.206038,0.412756 0.21376,0.69939 0.006,0.224213 -0.04032,0.467444 -0.158484,0.689277 -0.07016,0.107574 -0.158116,0.206719 -0.26156,0.303552 -0.09662,0.09045 -0.202688,0.175263 -0.319232,0.264809 -0.39351,0.386366 -0.841267,0.766637 -1.269423,1.218309 -0.331105,0.321661 -0.642678,0.67589 -0.906064,1.073852 -0.163277,0.262887 -0.303173,0.534092 -0.421616,0.767015 -0.137774,0.270937 -0.237855,0.471888 -0.356614,0.679723 -0.49735,0.999946 -1.158094,1.68156 -1.644962,2.118118 0,0 0.679519,0.757829 0.679519,0.757829 z"
       id="path52829"
       inkscape:path-effect="#path-effect52831;#path-effect52833;#path-effect52835"
       inkscape:original-d="m 13.580517,35.691114 c 1.480422,-0.723995 1.704314,-2.614939 2.381076,-3.968461 0.04792,-0.09584 -0.07338,-0.402834 0,-0.476218 0.461686,-0.461681 1.444563,-1.301738 1.746123,-1.904857 0.08638,-0.172756 0.02197,-0.656927 0.158738,-0.793693 0.07483,-0.07483 0.270151,0.09465 0.317478,0 0.212752,-0.425506 0.335006,-1.181773 -0.158739,-1.428645" />
    <path
       style="fill:#000000;fill-opacity:1;stroke:#5b5b5b;stroke-width:0.288992;stroke-linecap:butt;stroke-linejoin:miter;stroke-dasharray:none;stroke-opacity:0.996078"
       d="m 24.136622,34.103729 c 0.573446,-0.701103 1.390302,-1.199145 2.276188,-1.387804 0.613202,-0.130588 1.246517,-0.116181 1.87347,-0.115786 1.562306,9.83e-4 3.124053,-0.08872 4.686196,-0.0661 0.865853,0.01254 1.731206,0.0596 2.593312,0.141046"
       id="path57131"
       inkscape:path-effect="#path-effect57133;#path-effect57135"
       inkscape:original-d="m 24.136622,34.103729 c 0.619467,-0.592721 1.714776,-0.841714 2.222337,-1.349277 0.235984,-0.235981 1.324849,0.03463 1.666754,-0.07937 1.759894,-0.586633 5.564872,0 7.540075,0" />
    <path
       style="fill:#000000;fill-opacity:1;stroke:#5b5b5b;stroke-width:0.493588;stroke-linecap:butt;stroke-linejoin:miter;stroke-dasharray:none;stroke-opacity:0.996078"
       d="m 40.486679,26.08744 c 0.346956,-0.527921 0.583456,-1.128074 0.689918,-1.750766 0.04595,-0.268739 0.06796,-0.541348 0.120504,-0.808876 0.05254,-0.267528 0.137951,-0.533855 0.297123,-0.755206 0.17044,-0.237021 0.417376,-0.410452 0.68111,-0.535645 0.263734,-0.125193 0.545991,-0.205684 0.826233,-0.287496 0.426026,-0.124372 0.85079,-0.253066 1.274204,-0.386057"
       id="path58799"
       inkscape:path-effect="#path-effect58801;#path-effect58803"
       inkscape:original-d="m 40.486679,26.08744 c 0.886127,-0.751935 0.556809,-2.77915 1.19054,-3.412876 0.579401,-0.579406 1.822655,-0.819205 2.698552,-1.11117" />
    <path
       style="fill:#000000;fill-opacity:1;stroke:#5b5b5b;stroke-width:0.442439;stroke-linecap:butt;stroke-linejoin:miter;stroke-dasharray:none;stroke-opacity:0.996078"
       d="m 15.009163,34.897424 c 0.106875,-0.245953 0.216674,-0.490635 0.329365,-0.733978 0.146623,-0.316614 0.298441,-0.631687 0.41395,-0.960929 0.07395,-0.210773 0.132826,-0.427013 0.171654,-0.646981 0.03758,-0.212926 0.05761,-0.433341 0.150598,-0.62854 0.107466,-0.225578 0.301679,-0.395493 0.48761,-0.562419 0.18593,-0.166925 0.374559,-0.345936 0.464362,-0.579109 0.0216,-0.05609 0.03708,-0.114546 0.04606,-0.173982"
       id="path59570"
       inkscape:path-effect="#path-effect59572;#path-effect59574"
       inkscape:original-d="m 15.009163,34.897424 c 0.02645,-0.105828 0.03886,-0.216197 0.07937,-0.317477 0.123039,-0.307595 0.411035,-0.583969 0.555585,-0.873063 0.272531,-0.545065 -0.10675,-0.76631 0.317476,-1.190541 0.08711,-0.08711 -0.04038,-0.435836 0.07937,-0.555581 0.350144,-0.350145 1.031799,-1.028366 1.031799,-1.349276" />
    <path
       style="fill:#000000;fill-opacity:1;stroke:none;stroke-width:0.442439;stroke-dasharray:none;stroke-opacity:1"
       id="path61143"
       d="m 33.884406,21.343356 c 0.313646,-0.263897 0.643982,-0.50165 0.9862,-0.726346 0.179149,-0.09645 0.358166,-0.193025 0.540845,-0.282767 0,0 -2.008864,-0.219492 -2.008864,-0.219492 v 0 c -0.177508,0.09889 -0.359685,0.1903 -0.527434,0.305674 -0.346094,0.235073 -0.674154,0.493466 -1.007692,0.745782 0,0 2.016945,0.177149 2.016945,0.177149 z" />
    <path
       style="fill:#000000;fill-opacity:1;stroke:none;stroke-width:0.442439;stroke-dasharray:none;stroke-opacity:1"
       id="path61401"
       d="m 37.01528,21.985101 c 0.248262,-0.266325 0.540257,-0.490703 0.850977,-0.67927 0.04496,-0.02134 0.08994,-0.04267 0.134911,-0.06401 0,0 -2.003416,-0.216255 -2.003416,-0.216255 v 0 c -0.0445,0.02701 -0.08895,0.05402 -0.133423,0.08102 -0.311728,0.218433 -0.609957,0.457676 -0.868874,0.737962 0,0 2.019825,0.140552 2.019825,0.140552 z" />
    <path
       style="fill:#000000;fill-opacity:1;stroke:none;stroke-width:0.442439;stroke-dasharray:none;stroke-opacity:1"
       id="path61403"
       d="m 42.999667,19.76339 c 0.44822,-0.404302 0.877227,-0.829492 1.330403,-1.228603 0.181558,-0.118639 0.346575,-0.303702 0.564189,-0.360762 0.06448,-0.01691 0.175758,-0.0068 0.239592,-0.004 0.749416,0.03966 0.203778,0.008 -1.639629,0.01033 0,0 1.982839,-0.308452 1.982839,-0.308452 v 0 c -2.233714,-0.0086 -1.454274,-0.0478 -2.341271,2.7e-4 -0.316223,0.06975 -0.557882,0.285537 -0.794349,0.497287 -0.437064,0.416382 -0.862726,0.850938 -1.351849,1.206972 0,0 2.010075,0.18693 2.010075,0.18693 z" />
    <path
       style="fill:#000000;fill-opacity:1;stroke:none;stroke-width:0.442439;stroke-dasharray:none;stroke-opacity:1"
       id="path61405"
       d="m 38.058731,31.53086 c 0.339251,-0.07707 0.682323,-0.125602 1.021544,-0.202228 0.187937,-0.03688 0.09538,-0.02061 0.277591,-0.04915 0,0 -1.998926,-0.280394 -1.998926,-0.280394 v 0 c -0.180126,0.03631 -0.08867,0.01713 -0.274327,0.05783 -0.342822,0.07411 -0.691413,0.119469 -1.031646,0.206453 0,0 2.005764,0.267494 2.005764,0.267494 z" />
    <path
       style="fill:#000000;fill-opacity:1;stroke:none;stroke-width:0.442439;stroke-dasharray:none;stroke-opacity:1"
       id="path62030"
       d="m 42.355957,32.436566 c 0.17963,-0.01008 0.36215,0.01667 0.540164,-0.0177 0.03407,-0.0066 0.189103,-0.05484 0.227486,-0.06657 0.166955,-0.05482 0.265341,-0.124931 0.444746,-0.147176 0.236892,-0.06743 0.448638,-0.198341 0.651316,-0.334592 0.137822,-0.07318 0.271653,-0.221833 0.43955,-0.227541 0.05048,-0.0015 0.09884,0.02066 0.148266,0.03095 0,0 -1.978123,-0.307181 -1.978123,-0.307181 v 0 c -0.05317,0.0134 -0.108278,0.02072 -0.159509,0.04025 -0.158572,0.06051 -0.287017,0.184279 -0.437252,0.260026 -0.212131,0.118078 -0.430164,0.226283 -0.671951,0.267371 -0.145831,0.04987 -0.281253,0.126717 -0.435012,0.152737 -0.25327,0.052 -0.511849,0.03176 -0.768949,0.03279 0,0 1.999268,0.316654 1.999268,0.316654 z" />
    <path
       style="fill:#000000;fill-opacity:1;stroke:none;stroke-width:0.442439;stroke-dasharray:none;stroke-opacity:1"
       id="path62032"
       d="m 45.692711,33.424797 c 0.256773,-0.06191 0.52037,-0.09067 0.783573,-0.106938 0.226574,0.0071 0.446357,-0.02818 0.669489,-0.05946 0,0 -1.996475,-0.288194 -1.996475,-0.288194 v 0 c -0.219317,0.02977 -0.439718,0.0311 -0.660073,0.05023 -0.269934,0.02936 -0.538405,0.07194 -0.802278,0.136844 0,0 2.005764,0.267494 2.005764,0.267494 z" />
    <path
       style="fill:#000000;fill-opacity:1;stroke:none;stroke-width:0.442439;stroke-dasharray:none;stroke-opacity:1"
       id="path62034"
       d="m 38.792495,34.738059 c 0.04864,-5.12e-4 0.09729,-10e-4 0.145943,-0.0015 -0.600858,10e-4 -1.201741,-0.002 -1.802579,0.0036 -0.06006,5.11e-4 0.119934,0.007 0.17986,0.0112 0.153023,0.01059 0.305882,0.02409 0.458802,0.03611 0.207619,-0.0015 0.382948,0.08066 0.563448,0.172664 0,0 1.980854,-0.212862 1.980854,-0.212862 v 0 c -0.179165,-0.10484 -0.346969,-0.239771 -0.560726,-0.259765 -0.215051,-0.0133 -0.433586,-0.04598 -0.648688,-0.0488 -0.715821,-0.0093 -1.431733,-0.01008 -2.1476,-0.01529 -0.0553,-4.09e-4 -0.1106,-0.001 -0.165897,-0.0015 0,0 1.996583,0.316229 1.996583,0.316229 z" />
    <path
       style="fill:#000000;fill-opacity:1;stroke:none;stroke-width:0.442439;stroke-dasharray:none;stroke-opacity:1"
       id="path62036"
       d="m 40.615176,15.903413 c 0.207961,-0.169281 0.446597,-0.291762 0.675479,-0.428957 0,0 -1.975908,-0.204185 -1.975908,-0.204185 v 0 c -0.236769,0.14264 -0.47228,0.287232 -0.709519,0.428998 0,0 2.009948,0.204144 2.009948,0.204144 z" />
  </g>
</svg>
