<?xml version="1.0" encoding="UTF-8" standalone="no"?>
<!-- Created with Inkscape (http://www.inkscape.org/) -->

<svg
   width="53mm"
   height="53mm"
   viewBox="0 0 53 53"
   version="1.1"
   id="svg37476"
   sodipodi:docname="leftfield-icon.svg"
   inkscape:version="1.2.2 (732a01da63, 2022-12-09)"
   inkscape:export-filename="leftfield-icon.png"
   inkscape:export-xdpi="96"
   inkscape:export-ydpi="96"
   xmlns:inkscape="http://www.inkscape.org/namespaces/inkscape"
   xmlns:sodipodi="http://sodipodi.sourceforge.net/DTD/sodipodi-0.dtd"
   xmlns="http://www.w3.org/2000/svg"
   xmlns:svg="http://www.w3.org/2000/svg">
  <sodipodi:namedview
     id="namedview37478"
     pagecolor="#3e3e3e"
     bordercolor="#666666"
     borderopacity="1.0"
     inkscape:showpageshadow="2"
     inkscape:pageopacity="0"
     inkscape:pagecheckerboard="false"
     inkscape:deskcolor="#d1d1d1"
     inkscape:document-units="mm"
     showgrid="false"
     inkscape:zoom="1.4142136"
     inkscape:cx="-80.256619"
     inkscape:cy="57.982756"
     inkscape:window-width="1920"
     inkscape:window-height="1137"
     inkscape:window-x="-8"
     inkscape:window-y="-8"
     inkscape:window-maximized="1"
     inkscape:current-layer="path64675"
     showborder="false" />
  <defs
     id="defs37473">
    <inkscape:path-effect
       effect="bspline"
       id="path-effect64677"
       is_visible="true"
       lpeversion="1"
       weight="33.333333"
       steps="2"
       helper_size="0"
       apply_no_weight="true"
       apply_with_weight="true"
       only_selected="false" />
    <inkscape:path-effect
       effect="bspline"
       id="path-effect64671"
       is_visible="true"
       lpeversion="1"
       weight="33.333333"
       steps="2"
       helper_size="0"
       apply_no_weight="true"
       apply_with_weight="true"
       only_selected="false" />
    <inkscape:path-effect
       effect="bspline"
       id="path-effect64663"
       is_visible="true"
       lpeversion="1"
       weight="33.333333"
       steps="2"
       helper_size="0"
       apply_no_weight="true"
       apply_with_weight="true"
       only_selected="false" />
    <inkscape:path-effect
       effect="bspline"
       id="path-effect64530"
       is_visible="true"
       lpeversion="1"
       weight="33.333333"
       steps="2"
       helper_size="0"
       apply_no_weight="true"
       apply_with_weight="true"
       only_selected="false" />
    <inkscape:path-effect
       effect="spiro"
       id="path-effect73480"
       is_visible="true"
       lpeversion="1" />
    <inkscape:path-effect
       effect="simplify"
       id="path-effect73478"
       is_visible="true"
       lpeversion="1"
       steps="1"
       threshold="0.00924528"
       smooth_angles="360"
       helper_size="0"
       simplify_individual_paths="false"
       simplify_just_coalesce="false" />
    <inkscape:path-effect
       effect="spiro"
       id="path-effect73474"
       is_visible="true"
       lpeversion="1" />
    <inkscape:path-effect
       effect="simplify"
       id="path-effect73472"
       is_visible="true"
       lpeversion="1"
       steps="1"
       threshold="0.00924528"
       smooth_angles="360"
       helper_size="0"
       simplify_individual_paths="false"
       simplify_just_coalesce="false" />
    <inkscape:path-effect
       effect="spiro"
       id="path-effect73468"
       is_visible="true"
       lpeversion="1" />
    <inkscape:path-effect
       effect="simplify"
       id="path-effect73466"
       is_visible="true"
       lpeversion="1"
       steps="1"
       threshold="0.00924528"
       smooth_angles="360"
       helper_size="0"
       simplify_individual_paths="false"
       simplify_just_coalesce="false" />
    <inkscape:path-effect
       effect="spiro"
       id="path-effect73462"
       is_visible="true"
       lpeversion="1" />
    <inkscape:path-effect
       effect="simplify"
       id="path-effect73460"
       is_visible="true"
       lpeversion="1"
       steps="1"
       threshold="0.00924528"
       smooth_angles="360"
       helper_size="0"
       simplify_individual_paths="false"
       simplify_just_coalesce="false" />
    <inkscape:path-effect
       effect="spiro"
       id="path-effect73336"
       is_visible="true"
       lpeversion="1" />
    <inkscape:path-effect
       effect="simplify"
       id="path-effect73334"
       is_visible="true"
       lpeversion="1"
       steps="1"
       threshold="0.00924528"
       smooth_angles="360"
       helper_size="0"
       simplify_individual_paths="false"
       simplify_just_coalesce="false" />
    <rect
       x="240.45615"
       y="31.669834"
       width="472.7016"
       height="174.77057"
       id="rect62766" />
    <inkscape:path-effect
       effect="spiro"
       id="path-effect59574"
       is_visible="true"
       lpeversion="1" />
    <inkscape:path-effect
       effect="simplify"
       id="path-effect59572"
       is_visible="true"
       lpeversion="1"
       steps="1"
       threshold="0.00924528"
       smooth_angles="360"
       helper_size="0"
       simplify_individual_paths="false"
       simplify_just_coalesce="false" />
    <inkscape:path-effect
       effect="spiro"
       id="path-effect58803"
       is_visible="true"
       lpeversion="1" />
    <inkscape:path-effect
       effect="simplify"
       id="path-effect58801"
       is_visible="true"
       lpeversion="1"
       steps="1"
       threshold="0.00924528"
       smooth_angles="360"
       helper_size="0"
       simplify_individual_paths="false"
       simplify_just_coalesce="false" />
    <inkscape:path-effect
       effect="spiro"
       id="path-effect58383"
       is_visible="true"
       lpeversion="1" />
    <inkscape:path-effect
       effect="simplify"
       id="path-effect58381"
       is_visible="true"
       lpeversion="1"
       steps="1"
       threshold="0.00924528"
       smooth_angles="360"
       helper_size="0"
       simplify_individual_paths="false"
       simplify_just_coalesce="false" />
    <inkscape:path-effect
       effect="spiro"
       id="path-effect57135"
       is_visible="true"
       lpeversion="1" />
    <inkscape:path-effect
       effect="simplify"
       id="path-effect57133"
       is_visible="true"
       lpeversion="1"
       steps="1"
       threshold="0.00924528"
       smooth_angles="360"
       helper_size="0"
       simplify_individual_paths="false"
       simplify_just_coalesce="false" />
    <inkscape:path-effect
       effect="skeletal"
       id="path-effect57129"
       is_visible="true"
       lpeversion="1"
       pattern="M 0,4.9921385 C 0,2.2364781 2.2364781,0 4.9921385,0 7.747799,0 9.984277,2.2364781 9.984277,4.9921385 9.984277,7.747799 7.747799,9.984277 4.9921385,9.984277 2.2364781,9.984277 0,7.747799 0,4.9921385 Z"
       copytype="single_stretched"
       prop_scale="1"
       scale_y_rel="false"
       spacing="0"
       normal_offset="0"
       tang_offset="0"
       prop_units="false"
       vertical_pattern="false"
       hide_knot="false"
       fuse_tolerance="0" />
    <inkscape:path-effect
       effect="spiro"
       id="path-effect57127"
       is_visible="true"
       lpeversion="1" />
    <inkscape:path-effect
       effect="simplify"
       id="path-effect57125"
       is_visible="true"
       lpeversion="1"
       steps="1"
       threshold="0.00924528"
       smooth_angles="360"
       helper_size="0"
       simplify_individual_paths="false"
       simplify_just_coalesce="false" />
    <inkscape:path-effect
       effect="powerstroke"
       id="path-effect52835"
       is_visible="true"
       lpeversion="1"
       offset_points="0,1.017866"
       not_jump="false"
       sort_points="true"
       interpolator_type="CubicBezierJohan"
       interpolator_beta="0.2"
       start_linecap_type="zerowidth"
       linejoin_type="extrp_arc"
       miter_limit="4"
       scale_width="1"
       end_linecap_type="zerowidth" />
    <inkscape:path-effect
       effect="spiro"
       id="path-effect52833"
       is_visible="true"
       lpeversion="1" />
    <inkscape:path-effect
       effect="simplify"
       id="path-effect52831"
       is_visible="true"
       lpeversion="1"
       steps="1"
       threshold="0.00924528"
       smooth_angles="360"
       helper_size="0"
       simplify_individual_paths="false"
       simplify_just_coalesce="false" />
    <inkscape:path-effect
       effect="spiro"
       id="path-effect52819"
       is_visible="true"
       lpeversion="1" />
    <inkscape:path-effect
       effect="simplify"
       id="path-effect52817"
       is_visible="true"
       lpeversion="1"
       steps="1"
       threshold="0.00924528"
       smooth_angles="360"
       helper_size="0"
       simplify_individual_paths="false"
       simplify_just_coalesce="false" />
    <filter
       style="color-interpolation-filters:sRGB"
       inkscape:label="Drop Shadow"
       id="filter48949"
       x="-0.1787952"
       y="-0.1787952"
       width="1.3575904"
       height="1.3575904">
      <feFlood
         flood-opacity="1"
         flood-color="rgb(255,255,255)"
         result="flood"
         id="feFlood48939" />
      <feComposite
         in="flood"
         in2="SourceGraphic"
         operator="in"
         result="composite1"
         id="feComposite48941" />
      <feGaussianBlur
         in="composite1"
         stdDeviation="4.46988"
         result="blur"
         id="feGaussianBlur48943" />
      <feOffset
         dx="0"
         dy="0"
         result="offset"
         id="feOffset48945" />
      <feComposite
         in="SourceGraphic"
         in2="offset"
         operator="over"
         result="composite2"
         id="feComposite48947" />
    </filter>
    <rect
       x="240.45615"
       y="31.669834"
       width="281.50964"
       height="83.279938"
       id="rect62766-8" />
    <rect
       x="240.45615"
       y="31.669834"
       width="281.50964"
       height="83.279938"
       id="rect62766-4" />
    <rect
       x="240.45615"
       y="31.669834"
       width="453.9343"
       height="139.58186"
       id="rect62766-3" />
  </defs>
  <g
     inkscape:label="Layer 1"
     inkscape:groupmode="layer"
     id="layer1">
    <circle
       style="fill:#2f8cef;fill-opacity:1;stroke:none;stroke-width:1.90498;stroke-dasharray:none;stroke-opacity:0.996078"
       id="path38012"
       cx="26.914518"
       cy="26.404413"
       r="25.574499" />
    <circle
       style="fill:#ffffff;fill-opacity:0.996078;stroke:none;stroke-width:1.965;stroke-dasharray:none;stroke-opacity:1;filter:url(#filter48949);opacity:1"
       id="path47820"
       cx="66.454048"
       cy="50.14053"
       r="30"
       transform="matrix(0.51149047,0,0,0.51149047,-1.2148635,-1.4638218)" />
    <circle
       id="path64657"
       style="fill:#000000;stroke:#000000;stroke-width:0.264583"
       cx="62.379307"
       cy="32.818962"
       r="0" />
    <circle
       id="path64659"
       style="fill:#000000;stroke:#000000;stroke-width:0.264583"
       cx="30.413792"
       cy="26.379311"
       r="0" />
    <g
       id="path64675">
      <path
         style="color:#000000;fill:#000000;stroke-width:1.206;-inkscape-stroke:none"
         d="m 38.146614,34.260633 c -0.592278,-0.0836 -0.499153,0.05 -1.464384,-0.222206 -0.820645,0.167388 0.161631,0.524639 1.360966,0.913691 1.16409,0.233652 2.041671,0.149355 2.208957,-0.166722 -0.98063,-0.383879 -1.098916,-0.345012 -2.105539,-0.524763 z"
         id="path1304"
         sodipodi:nodetypes="ccccc" />
      <path
         style="color:#000000;fill:#000000;stroke-width:1.34343;-inkscape-stroke:none"
         d="m 44.84109,32.926606 c -1.072497,0.01234 -2.052407,0.164828 -1.030249,0.306852 0.660078,0.08808 1.320631,0.176409 1.980654,0.264507 1.403551,-0.171962 2.517824,-0.21698 0.667858,-0.408905 -0.298123,-0.126716 -0.974767,-0.169833 -1.618263,-0.162454 z"
         id="path1302" />
      <path
         style="color:#000000;fill:#000000;stroke-width:1.33023;-inkscape-stroke:none"
         d="m 42.954752,31.641689 c -0.784374,0.220937 -1.426005,0.183745 -1.80569,0.468298 0.398564,0.381795 1.622008,-0.03977 2.518136,0.0096 1.05212,-0.274143 2.850966,-1.425898 0.325362,-0.798093 -0.356251,0.07062 -0.607985,0.06562 -1.037808,0.320165 z"
         id="path1300"
         sodipodi:nodetypes="ccccc" />
      <path
         style="color:#000000;fill:#000000;stroke-width:1.30724;-inkscape-stroke:none"
         d="m 37.920454,30.990449 c -1.078899,0.264585 -2.516913,1.067684 -0.887344,0.689551 0.549862,-0.07146 1.099918,-0.142602 1.649769,-0.214067 1.796673,-0.735899 1.499562,-0.83014 -0.114967,-0.551755 -0.168653,-0.01747 -0.39847,0.01523 -0.647445,0.07625 z"
         id="path1298" />
      <path
         style="color:#000000;fill:#000000;-inkscape-stroke:none"
         d="m 43.950806,24.238829 c -1.673058,1.415657 -2.420207,1.3086 -3.995105,1.590367 -0.744853,0.26864 -1.792583,0.658459 -2.292759,0.351845 -0.453403,0.114337 3.7567,-3.50795 3.28441,-3.45257 -0.47229,0.05538 -5.112479,3.694887 -5.586587,3.739882 -0.474108,0.045 -0.477136,0.09695 -0.935993,0.180148 -0.766869,-0.0037 -4.371844,0.478355 -4.932515,0.432531 0.235962,-0.417045 0.908494,-1.429831 1.503784,-1.833996 0.30562,-0.600545 0.865724,-1.189555 1.475362,-1.349273 1.317929,-0.987988 2.886835,-0.572292 5.092196,-0.465087 1.813922,-0.477361 0.009,-0.208944 -0.558106,-0.295072 -1.114158,-0.130905 -2.129055,-0.195691 -3.243213,-0.326595 -0.262776,0.05398 -0.617647,0.07936 -0.833006,0.114533 -0.215359,0.03517 0.101219,-0.291768 0.09142,-0.488266 -0.0226,-0.455528 0.930181,-1.261509 0.858885,-1.314891 -0.12547,-0.09395 -1.429235,1.029073 -1.453499,1.187076 -0.0222,0.144556 -0.384263,0.603403 -0.521472,0.669177 -0.137209,0.06578 -1.069552,0.545676 -1.215103,0.645569 -0.145552,0.09989 -0.298062,0.219492 -0.463108,0.364088 -0.165046,0.144597 -0.342628,0.314192 -0.53832,0.514078 -0.595409,0.746955 -0.309556,0.328242 -1.154451,1.128096 -0.473904,0.293649 -0.413458,0.707298 -2.471167,1.647962 -1.150765,0.380293 -1.556695,0.62229 -2.287179,1.619297 -1.140092,1.42539 -1.314888,3.690491 -3.532621,4.386022 -1.846191,0.167231 -2.962228,1.39197 -4.678895,1.697296 0.1451,-0.237696 0.314195,-1.720411 0.426441,-1.898834 0.765234,-1.662947 0.72113,-2.198025 1.977658,-3.631303 0.376419,-0.386965 0.57526,-1.846915 0.472555,-2.31702 -0.05785,-0.224794 -0.290833,0.291599 -0.498914,1.162568 -1.093198,1.597552 -2.747378,2.546342 -3.395658,4.518587 -0.240656,0.801341 -0.742017,2.007734 -1.62574,2.879928 -1.578058,1.185045 -2.9994486,1.652967 -4.2271543,2.623998 -0.3706342,0.356128 -1.4420446,1.079074 -1.4857565,1.095164 -1.5273646,0.736308 -0.879142,0.362348 -1.6613165,1.018016 1.5867509,2.415703 3.5715063,4.544959 5.8699263,6.29729 0.558479,-0.70278 1.141892,-0.941063 1.623399,-1.576841 0.128977,0.009 0.679546,-0.95403 1.288052,-1.325308 1.17515,-1.397172 1.863371,-1.795303 2.904731,-3.318661 0.300005,-0.653241 1.176471,-1.176219 1.949094,-1.31622 0.828892,-0.363249 0.696862,-0.28393 1.698999,-0.881723 0.958141,-0.669867 1.682973,-0.234094 2.080512,-0.631151 1.007668,-0.222682 1.237242,-0.879544 1.531254,-1.303674 0.294012,-0.424131 0.586315,-1.012406 1.454855,-1.494788 0.725183,-0.588881 1.514445,-1.064885 2.360579,-1.355473 1.266256,-0.138951 1.700686,-0.160257 2.962093,-0.197921 0.656764,-0.148517 1.903405,-0.09936 1.932255,-0.10713 2.208967,0.191129 2.557236,0.07618 4.800671,0.282811 1.661641,-0.0012 4.348326,0.06365 4.984708,-10e-4 0.0663,-0.215618 -0.789293,-0.376982 -1.890021,-0.49781 -1.100728,-0.120828 -2.446589,-0.201121 -3.360822,-0.254599 -1.222692,-0.133725 -1.792324,-0.246634 -2.939569,-0.514884 -0.616158,-0.144068 -1.388992,0.05955 -2.448633,0.02758 -1.090182,-0.01096 -3.917525,-0.04433 -5.104697,0.17725 -0.183087,-1.38e-4 -0.365993,7.82e-4 -0.548803,0.0036 -0.05223,-0.716432 -0.02041,-2.405816 1.796272,-3.19102 2.613074,-0.758539 5.657549,-1.095119 7.831007,-1.442289 1.077504,0.0098 4.466929,-1.057346 6.886441,-1.636076 1.722488,-1.025369 2.42521,-3.064863 4.290178,-4.143933 1.711949,-0.612766 0.987472,-0.549672 -0.197921,-0.573608 -1.006428,0.541593 -0.55999,0.421767 -1.629875,1.32705 z"
         id="path1296"
         sodipodi:nodetypes="scccccccccccsssssssccccccccccccccccccccccsccccccscsccccccccss" />
      <path
         style="color:#000000;fill:#000000;stroke-width:1.2238;-inkscape-stroke:none"
         d="m 36.594955,21.50652 c -1.043457,0.192514 -2.135113,0.876599 -0.544322,0.643908 0.518335,0.03607 1.322977,-0.156889 1.869926,-0.32115 1.532004,-0.940493 1.039785,-1.18103 -0.331222,-0.678221 -0.116412,-0.06752 -0.54155,0.271915 -0.994382,0.355463 z"
         id="path1294"
         sodipodi:nodetypes="scccs" />
      <path
         style="color:#000000;fill:#000000;-inkscape-stroke:none"
         d="m 34.302664,19.654713 c -0.368644,0.888929 -0.02433,0.492813 0.683432,-0.233719 0.321672,-0.423988 0.323504,-0.753274 0.620958,-1.121635 0.25166,-0.579224 0.564644,-1.403116 -0.303414,-0.479948 -0.986068,1.428457 -0.40145,0.389716 -1.000971,1.835303 z"
         id="path1292"
         sodipodi:nodetypes="ccccc" />
      <path
         style="color:#000000;fill:#000000;-inkscape-stroke:none"
         d="m 40.022877,18.871717 c -0.775879,-0.0047 -0.990698,0.158196 -1.914611,0.556038 -0.860364,0.771163 -1.529539,0.725009 0.153995,0.6134 1.527117,-0.815992 1.424495,-0.450741 2.310452,-0.950852 0.322823,-0.390723 -0.404999,-0.219038 -0.549836,-0.218586 z"
         id="path1288"
         sodipodi:nodetypes="ccccc" />
      <path
         style="color:#000000;fill:#000000;stroke-width:1.24255;-inkscape-stroke:none"
         d="m 38.96445,24.054078 c -0.406825,0.06533 -1.672753,-0.333062 -1.433477,0.08867 0.566799,0.205008 1.021359,0.439951 2.596508,0.699138 1.971466,-0.108146 -0.41916,-0.724978 -1.163031,-0.787826 z"
         id="path65573"
         sodipodi:nodetypes="cccc" />
      <path
         style="color:#000000;fill:#000000;stroke-width:1.32763;-inkscape-stroke:none"
         d="m 20.185511,27.920452 c -1.048417,0.47524 -2.198581,1.328179 -0.584355,0.667679 0.555203,-0.09738 1.45967,-0.47486 1.992671,-0.790673 1.367455,-1.390416 0.813266,-1.371611 -0.498989,-0.484096 -0.235346,0.130578 -0.454347,0.400844 -0.909327,0.60709 z"
         id="path1294-6"
         sodipodi:nodetypes="scccs" />
      <path
         style="color:#000000;fill:#000000;stroke-width:1.09525;-inkscape-stroke:none"
         d="m 15.77763,28.396991 c 0.268253,0.426061 0.284201,-0.357764 0.326217,-0.661331 0.06047,-0.579752 0.01106,-0.7624 0.08044,-1.276303 -0.09315,-0.685387 -0.62119,-2.051285 -0.620105,-0.331522 0.123166,0.593735 0.171353,0.55674 0.213486,2.269153 z"
         id="path1292-5"
         sodipodi:nodetypes="cccccc" />
      <path
         style="color:#000000;fill:#000000;stroke-width:1.0578;-inkscape-stroke:none"
         d="m 21.818637,24.850476 c -0.783831,0.243342 -0.71334,0.525762 -1.517718,1.222332 -0.559091,0.595024 -1.159739,1.106906 -0.217555,0.518623 1.429171,-1.35193 2.074056,-1.081134 2.922359,-1.992061 0.119108,-0.518861 -0.950773,0.176695 -1.187081,0.251106 z"
         id="path1288-9"
         sodipodi:nodetypes="cccccc" />
    </g>
  </g>
</svg>
