<?xml version="1.0" encoding="UTF-8" standalone="no"?>
<!-- Created with Inkscape (http://www.inkscape.org/) -->

<svg
   width="149mm"
   height="52mm"
   viewBox="0 0 149 52"
   version="1.1"
   id="svg37476"
   sodipodi:docname="leftfield-logo-light.svg"
   inkscape:version="1.2.2 (732a01da63, 2022-12-09)"
   inkscape:export-filename="leftfield-logo-light.webp"
   inkscape:export-xdpi="96"
   inkscape:export-ydpi="96"
   xmlns:inkscape="http://www.inkscape.org/namespaces/inkscape"
   xmlns:sodipodi="http://sodipodi.sourceforge.net/DTD/sodipodi-0.dtd"
   xmlns="http://www.w3.org/2000/svg"
   xmlns:svg="http://www.w3.org/2000/svg">
  <sodipodi:namedview
     id="namedview37478"
     pagecolor="#bcbcbc"
     bordercolor="#666666"
     borderopacity="1.0"
     inkscape:showpageshadow="2"
     inkscape:pageopacity="0"
     inkscape:pagecheckerboard="false"
     inkscape:deskcolor="#d1d1d1"
     inkscape:document-units="mm"
     showgrid="false"
     inkscape:zoom="1.2056825"
     inkscape:cx="212.32787"
     inkscape:cy="92.064038"
     inkscape:window-width="1920"
     inkscape:window-height="1137"
     inkscape:window-x="-8"
     inkscape:window-y="-8"
     inkscape:window-maximized="1"
     inkscape:current-layer="layer1"
     showborder="false" />
  <defs
     id="defs37473">
    <inkscape:path-effect
       effect="spiro"
       id="path-effect73480"
       is_visible="true"
       lpeversion="1" />
    <inkscape:path-effect
       effect="simplify"
       id="path-effect73478"
       is_visible="true"
       lpeversion="1"
       steps="1"
       threshold="0.00924528"
       smooth_angles="360"
       helper_size="0"
       simplify_individual_paths="false"
       simplify_just_coalesce="false" />
    <inkscape:path-effect
       effect="spiro"
       id="path-effect73474"
       is_visible="true"
       lpeversion="1" />
    <inkscape:path-effect
       effect="simplify"
       id="path-effect73472"
       is_visible="true"
       lpeversion="1"
       steps="1"
       threshold="0.00924528"
       smooth_angles="360"
       helper_size="0"
       simplify_individual_paths="false"
       simplify_just_coalesce="false" />
    <inkscape:path-effect
       effect="spiro"
       id="path-effect73468"
       is_visible="true"
       lpeversion="1" />
    <inkscape:path-effect
       effect="simplify"
       id="path-effect73466"
       is_visible="true"
       lpeversion="1"
       steps="1"
       threshold="0.00924528"
       smooth_angles="360"
       helper_size="0"
       simplify_individual_paths="false"
       simplify_just_coalesce="false" />
    <inkscape:path-effect
       effect="spiro"
       id="path-effect73462"
       is_visible="true"
       lpeversion="1" />
    <inkscape:path-effect
       effect="simplify"
       id="path-effect73460"
       is_visible="true"
       lpeversion="1"
       steps="1"
       threshold="0.00924528"
       smooth_angles="360"
       helper_size="0"
       simplify_individual_paths="false"
       simplify_just_coalesce="false" />
    <inkscape:path-effect
       effect="spiro"
       id="path-effect73336"
       is_visible="true"
       lpeversion="1" />
    <inkscape:path-effect
       effect="simplify"
       id="path-effect73334"
       is_visible="true"
       lpeversion="1"
       steps="1"
       threshold="0.00924528"
       smooth_angles="360"
       helper_size="0"
       simplify_individual_paths="false"
       simplify_just_coalesce="false" />
    <rect
       x="240.45615"
       y="31.669834"
       width="472.7016"
       height="174.77057"
       id="rect62766" />
    <inkscape:path-effect
       effect="spiro"
       id="path-effect59574"
       is_visible="true"
       lpeversion="1" />
    <inkscape:path-effect
       effect="simplify"
       id="path-effect59572"
       is_visible="true"
       lpeversion="1"
       steps="1"
       threshold="0.00924528"
       smooth_angles="360"
       helper_size="0"
       simplify_individual_paths="false"
       simplify_just_coalesce="false" />
    <inkscape:path-effect
       effect="spiro"
       id="path-effect58803"
       is_visible="true"
       lpeversion="1" />
    <inkscape:path-effect
       effect="simplify"
       id="path-effect58801"
       is_visible="true"
       lpeversion="1"
       steps="1"
       threshold="0.00924528"
       smooth_angles="360"
       helper_size="0"
       simplify_individual_paths="false"
       simplify_just_coalesce="false" />
    <inkscape:path-effect
       effect="spiro"
       id="path-effect58383"
       is_visible="true"
       lpeversion="1" />
    <inkscape:path-effect
       effect="simplify"
       id="path-effect58381"
       is_visible="true"
       lpeversion="1"
       steps="1"
       threshold="0.00924528"
       smooth_angles="360"
       helper_size="0"
       simplify_individual_paths="false"
       simplify_just_coalesce="false" />
    <inkscape:path-effect
       effect="spiro"
       id="path-effect57135"
       is_visible="true"
       lpeversion="1" />
    <inkscape:path-effect
       effect="simplify"
       id="path-effect57133"
       is_visible="true"
       lpeversion="1"
       steps="1"
       threshold="0.00924528"
       smooth_angles="360"
       helper_size="0"
       simplify_individual_paths="false"
       simplify_just_coalesce="false" />
    <inkscape:path-effect
       effect="skeletal"
       id="path-effect57129"
       is_visible="true"
       lpeversion="1"
       pattern="M 0,4.9921385 C 0,2.2364781 2.2364781,0 4.9921385,0 7.747799,0 9.984277,2.2364781 9.984277,4.9921385 9.984277,7.747799 7.747799,9.984277 4.9921385,9.984277 2.2364781,9.984277 0,7.747799 0,4.9921385 Z"
       copytype="single_stretched"
       prop_scale="1"
       scale_y_rel="false"
       spacing="0"
       normal_offset="0"
       tang_offset="0"
       prop_units="false"
       vertical_pattern="false"
       hide_knot="false"
       fuse_tolerance="0" />
    <inkscape:path-effect
       effect="spiro"
       id="path-effect57127"
       is_visible="true"
       lpeversion="1" />
    <inkscape:path-effect
       effect="simplify"
       id="path-effect57125"
       is_visible="true"
       lpeversion="1"
       steps="1"
       threshold="0.00924528"
       smooth_angles="360"
       helper_size="0"
       simplify_individual_paths="false"
       simplify_just_coalesce="false" />
    <inkscape:path-effect
       effect="powerstroke"
       id="path-effect52835"
       is_visible="true"
       lpeversion="1"
       offset_points="0,1.017866"
       not_jump="false"
       sort_points="true"
       interpolator_type="CubicBezierJohan"
       interpolator_beta="0.2"
       start_linecap_type="zerowidth"
       linejoin_type="extrp_arc"
       miter_limit="4"
       scale_width="1"
       end_linecap_type="zerowidth" />
    <inkscape:path-effect
       effect="spiro"
       id="path-effect52833"
       is_visible="true"
       lpeversion="1" />
    <inkscape:path-effect
       effect="simplify"
       id="path-effect52831"
       is_visible="true"
       lpeversion="1"
       steps="1"
       threshold="0.00924528"
       smooth_angles="360"
       helper_size="0"
       simplify_individual_paths="false"
       simplify_just_coalesce="false" />
    <inkscape:path-effect
       effect="spiro"
       id="path-effect52819"
       is_visible="true"
       lpeversion="1" />
    <inkscape:path-effect
       effect="simplify"
       id="path-effect52817"
       is_visible="true"
       lpeversion="1"
       steps="1"
       threshold="0.00924528"
       smooth_angles="360"
       helper_size="0"
       simplify_individual_paths="false"
       simplify_just_coalesce="false" />
    <filter
       style="color-interpolation-filters:sRGB"
       inkscape:label="Drop Shadow"
       id="filter48949"
       x="-0.164"
       y="-0.164"
       width="1.3279999"
       height="1.3279999">
      <feFlood
         flood-opacity="1"
         flood-color="rgb(255,255,255)"
         result="flood"
         id="feFlood48939" />
      <feComposite
         in="flood"
         in2="SourceGraphic"
         operator="in"
         result="composite1"
         id="feComposite48941" />
      <feGaussianBlur
         in="composite1"
         stdDeviation="4.1"
         result="blur"
         id="feGaussianBlur48943" />
      <feOffset
         dx="0"
         dy="0"
         result="offset"
         id="feOffset48945" />
      <feComposite
         in="SourceGraphic"
         in2="offset"
         operator="over"
         result="composite2"
         id="feComposite48947" />
    </filter>
    <rect
       x="240.45615"
       y="31.669834"
       width="281.50964"
       height="83.279938"
       id="rect62766-8" />
    <rect
       x="240.45615"
       y="31.669834"
       width="281.50964"
       height="83.279938"
       id="rect62766-4" />
    <rect
       x="240.45615"
       y="31.669834"
       width="453.9343"
       height="139.58186"
       id="rect62766-3" />
    <filter
       style="color-interpolation-filters:sRGB"
       inkscape:label="Drop Shadow"
       id="filter48949-4"
       x="-0.19200002"
       y="-0.19200002"
       width="1.3839999"
       height="1.3839999">
      <feFlood
         flood-opacity="1"
         flood-color="rgb(255,255,255)"
         result="flood"
         id="feFlood48939-2" />
      <feComposite
         in="flood"
         in2="SourceGraphic"
         operator="in"
         result="composite1"
         id="feComposite48941-8" />
      <feGaussianBlur
         in="composite1"
         stdDeviation="4.8"
         result="blur"
         id="feGaussianBlur48943-6" />
      <feOffset
         dx="0"
         dy="0"
         result="offset"
         id="feOffset48945-0" />
      <feComposite
         in="SourceGraphic"
         in2="offset"
         operator="over"
         result="composite2"
         id="feComposite48947-9" />
    </filter>
    <filter
       style="color-interpolation-filters:sRGB"
       inkscape:label="Drop Shadow"
       id="filter48949-0"
       x="-0.19200001"
       y="-0.19200001"
       width="1.384"
       height="1.384">
      <feFlood
         flood-opacity="1"
         flood-color="rgb(255,255,255)"
         result="flood"
         id="feFlood48939-27" />
      <feComposite
         in="flood"
         in2="SourceGraphic"
         operator="in"
         result="composite1"
         id="feComposite48941-0" />
      <feGaussianBlur
         in="composite1"
         stdDeviation="4.8"
         result="blur"
         id="feGaussianBlur48943-0" />
      <feOffset
         dx="0"
         dy="0"
         result="offset"
         id="feOffset48945-2" />
      <feComposite
         in="SourceGraphic"
         in2="offset"
         operator="over"
         result="composite2"
         id="feComposite48947-8" />
    </filter>
    <filter
       style="color-interpolation-filters:sRGB"
       inkscape:label="Drop Shadow"
       id="filter48949-1"
       x="-0.19200001"
       y="-0.19200001"
       width="1.384"
       height="1.384">
      <feFlood
         flood-opacity="1"
         flood-color="rgb(255,255,255)"
         result="flood"
         id="feFlood48939-9" />
      <feComposite
         in="flood"
         in2="SourceGraphic"
         operator="in"
         result="composite1"
         id="feComposite48941-1" />
      <feGaussianBlur
         in="composite1"
         stdDeviation="4.8"
         result="blur"
         id="feGaussianBlur48943-4" />
      <feOffset
         dx="0"
         dy="0"
         result="offset"
         id="feOffset48945-22" />
      <feComposite
         in="SourceGraphic"
         in2="offset"
         operator="over"
         result="composite2"
         id="feComposite48947-4" />
    </filter>
    <filter
       style="color-interpolation-filters:sRGB"
       inkscape:label="Drop Shadow"
       id="filter48949-3"
       x="-0.19200001"
       y="-0.19200001"
       width="1.384"
       height="1.384">
      <feFlood
         flood-opacity="1"
         flood-color="rgb(255,255,255)"
         result="flood"
         id="feFlood48939-0" />
      <feComposite
         in="flood"
         in2="SourceGraphic"
         operator="in"
         result="composite1"
         id="feComposite48941-89" />
      <feGaussianBlur
         in="composite1"
         stdDeviation="4.8"
         result="blur"
         id="feGaussianBlur48943-1" />
      <feOffset
         dx="0"
         dy="0"
         result="offset"
         id="feOffset48945-4" />
      <feComposite
         in="SourceGraphic"
         in2="offset"
         operator="over"
         result="composite2"
         id="feComposite48947-7" />
    </filter>
    <filter
       style="color-interpolation-filters:sRGB"
       inkscape:label="Drop Shadow"
       id="filter48949-03"
       x="-0.19200001"
       y="-0.19200001"
       width="1.384"
       height="1.384">
      <feFlood
         flood-opacity="1"
         flood-color="rgb(255,255,255)"
         result="flood"
         id="feFlood48939-1" />
      <feComposite
         in="flood"
         in2="SourceGraphic"
         operator="in"
         result="composite1"
         id="feComposite48941-6" />
      <feGaussianBlur
         in="composite1"
         stdDeviation="4.8"
         result="blur"
         id="feGaussianBlur48943-46" />
      <feOffset
         dx="0"
         dy="0"
         result="offset"
         id="feOffset48945-1" />
      <feComposite
         in="SourceGraphic"
         in2="offset"
         operator="over"
         result="composite2"
         id="feComposite48947-2" />
    </filter>
    <filter
       style="color-interpolation-filters:sRGB"
       inkscape:label="Drop Shadow"
       id="filter48949-49"
       x="-0.19200001"
       y="-0.19200001"
       width="1.384"
       height="1.384">
      <feFlood
         flood-opacity="1"
         flood-color="rgb(255,255,255)"
         result="flood"
         id="feFlood48939-4" />
      <feComposite
         in="flood"
         in2="SourceGraphic"
         operator="in"
         result="composite1"
         id="feComposite48941-7" />
      <feGaussianBlur
         in="composite1"
         stdDeviation="4.8"
         result="blur"
         id="feGaussianBlur48943-02" />
      <feOffset
         dx="0"
         dy="0"
         result="offset"
         id="feOffset48945-01" />
      <feComposite
         in="SourceGraphic"
         in2="offset"
         operator="over"
         result="composite2"
         id="feComposite48947-5" />
    </filter>
  </defs>
  <g
     inkscape:label="Layer 1"
     inkscape:groupmode="layer"
     id="layer1">
    <text
       xml:space="preserve"
       transform="matrix(0.26458333,0,0,0.26458333,-3.5410919,-0.14726991)"
       id="text62764"
       style="font-style:normal;font-variant:normal;font-weight:bold;font-stretch:normal;font-size:85.3333px;line-height:1.25;font-family:'Segoe UI';-inkscape-font-specification:'Segoe UI, Bold';font-variant-ligatures:normal;font-variant-caps:normal;font-variant-numeric:normal;font-variant-east-asian:normal;letter-spacing:0px;word-spacing:0px;white-space:pre;shape-inside:url(#rect62766);display:inline;fill:#000000;fill-opacity:0.996078;stroke:none"><tspan
         x="240.45703"
         y="108.53427"
         id="tspan82522">Leftfield</tspan></text>
    <text
       xml:space="preserve"
       transform="matrix(0.26458333,0,0,0.26458333,-3.2705049,21.641156)"
       id="text62764-3"
       style="font-style:normal;font-variant:normal;font-weight:normal;font-stretch:normal;font-size:69.3333px;line-height:1.25;font-family:'Segoe UI';-inkscape-font-specification:'Segoe UI, Normal';font-variant-ligatures:normal;font-variant-caps:normal;font-variant-numeric:normal;font-variant-east-asian:normal;letter-spacing:0px;word-spacing:0px;white-space:pre;shape-inside:url(#rect62766-3);display:inline;fill:#575757;fill-opacity:0.996078;stroke:none"><tspan
         x="240.45703"
         y="94.122196"
         id="tspan82524">Geospatial</tspan></text>
    <circle
       id="path64657"
       style="fill:#000000;stroke:#000000;stroke-width:0.264583"
       cx="61.468246"
       cy="32.320438"
       r="0" />
    <circle
       id="path64659"
       style="fill:#000000;stroke:#000000;stroke-width:0.264583"
       cx="29.502735"
       cy="25.880785"
       r="0" />
    <circle
       id="path64657-8"
       style="fill:#000000;stroke:#000000;stroke-width:0.264583"
       cx="61.505653"
       cy="32.560036"
       r="0" />
    <circle
       id="path64659-9"
       style="fill:#000000;stroke:#000000;stroke-width:0.264583"
       cx="29.540146"
       cy="26.120386"
       r="0" />
    <g
       id="path64675"
       transform="translate(-0.87362338,-0.25889933)" />
    <circle
       id="path64657-9"
       style="fill:#000000;stroke:#000000;stroke-width:0.264583"
       cx="61.531075"
       cy="32.508667"
       r="0" />
    <circle
       id="path64659-5"
       style="fill:#000000;stroke:#000000;stroke-width:0.264583"
       cx="29.565531"
       cy="26.06901"
       r="0" />
    <g
       id="path64675-5"
       transform="translate(-0.84825018,-0.31028897)" />
    <circle
       id="path64657-97"
       style="fill:#000000;stroke:#000000;stroke-width:0.264583"
       cx="61.854721"
       cy="32.59166"
       r="0" />
    <circle
       id="path64659-93"
       style="fill:#000000;stroke:#000000;stroke-width:0.264583"
       cx="29.889206"
       cy="26.15202"
       r="0" />
    <g
       id="path64675-6"
       transform="translate(-0.52456583,-0.22727292)" />
    <circle
       id="path64657-6"
       style="fill:#000000;stroke:#000000;stroke-width:0.264583"
       cx="61.528259"
       cy="32.482868"
       r="0" />
    <circle
       id="path64659-7"
       style="fill:#000000;stroke:#000000;stroke-width:0.264583"
       cx="29.562717"
       cy="26.043211"
       r="0" />
    <g
       id="path64675-3"
       transform="translate(-0.85106506,-0.3360818)" />
    <circle
       style="fill:#106dd0;fill-opacity:1;stroke:none;stroke-width:1.90498;stroke-dasharray:none;stroke-opacity:0.996078"
       id="path38012"
       cx="26.095146"
       cy="26.063831"
       r="25.574499" />
    <circle
       style="fill:#ffffff;fill-opacity:0.996078;stroke:none;stroke-width:1.965;stroke-dasharray:none;stroke-opacity:1;filter:url(#filter48949-49)"
       id="path47820"
       cx="66.454048"
       cy="50.14053"
       r="30"
       transform="matrix(0.51149047,0,0,0.51149047,-1.9566343,-1.8043901)" />
    <path
       style="color:#000000;fill:#000000;stroke-width:1.239;-inkscape-stroke:none"
       d="m 33.031807,33.412495 c -0.519949,-0.04046 -2.509704,-0.211765 -1.054901,0.199091 1.099111,0.170982 1.973165,0.850188 3.274773,0.395946 -0.570226,-0.297113 -1.44332,-0.550426 -2.219875,-0.595015 z"
       id="path13181-4"
       sodipodi:nodetypes="ccccc" />
    <circle
       id="path64657-98"
       style="fill:#000000;stroke:#000000;stroke-width:0.264583"
       cx="61.63755"
       cy="32.478397"
       r="0" />
    <circle
       id="path64659-1"
       style="fill:#000000;stroke:#000000;stroke-width:0.264583"
       cx="29.67201"
       cy="26.038729"
       r="0" />
    <g
       id="path64675-33"
       transform="translate(-0.7417719,-0.34056891)" />
    <path
       style="color:#000000;fill:#000000;stroke-width:1.33023;-inkscape-stroke:none"
       d="m 44.90978,22.048276 c -0.24523,0.500906 -0.628255,2.453278 0.09144,1.065732 0.347649,-0.683343 1.37729,-2.346271 0.924707,-2.622395 -0.359463,0.505816 -0.810821,0.955914 -1.016145,1.556663 z"
       id="path13191" />
    <path
       style="color:#000000;fill:#000000;stroke-width:1.33023;-inkscape-stroke:none"
       d="m 47.403065,25.367981 c -0.735562,0.06214 -2.46836,0.930789 -0.741696,0.782875 1.200845,-0.237841 2.509444,-0.08846 3.626403,-0.62945 -0.808153,-0.373757 -2.003573,-0.358501 -2.884707,-0.153425 z"
       id="path13189" />
    <path
       style="color:#000000;fill:#000000;stroke-width:1.33023;-inkscape-stroke:none"
       d="m 44.834017,28.235493 c -0.605759,-0.143115 -2.295654,-0.557557 -0.894862,0.237184 0.927514,0.281781 2.3125,0.88392 3.077481,0.654171 -0.638387,-0.51533 -1.438458,-0.614026 -2.182619,-0.891355 z"
       id="path13187" />
    <path
       style="color:#000000;fill:#000000;stroke-width:1.33023;-inkscape-stroke:none"
       d="m 40.595956,31.471617 c -0.506556,-0.149694 -2.261281,-0.189488 -0.828843,0.202896 0.949405,0.353701 2.55138,0.789867 3.237033,0.49678 -0.801645,-0.249815 -1.562431,-0.60866 -2.408191,-0.699678 z"
       id="path13183" />
    <path
       style="color:#000000;fill:#000000;stroke-width:1.33023;-inkscape-stroke:none"
       d="m 42.912435,30.390847 c -0.559662,-0.01719 -2.735239,0.08506 -1.154317,0.452331 1.179159,0.03749 2.540624,0.357565 3.512884,-0.502522 -0.626519,-0.289894 -1.671643,-0.110361 -2.358569,0.0502 z"
       id="path13181" />
    <path
       style="color:#000000;fill:#000000;stroke-width:1.33023;-inkscape-stroke:none"
       d="m 37.115221,29.337245 c -0.539943,0.131602 -2.246196,1.557548 -0.727497,0.856515 0.8318,-0.280011 2.408984,-0.726135 2.510463,-1.451961 -0.606772,0.155411 -1.196442,0.382752 -1.782966,0.595446 z"
       id="path13179" />
    <path
       style="color:#000000;fill:#000000;stroke-width:1.33023;-inkscape-stroke:none"
       d="m 42.976291,25.832462 c -1.261516,1.200354 -2.316841,1.155704 -3.907257,1.329716 -0.761399,0.217364 -1.190246,0.111186 -1.949666,0.08391 -1.399751,-0.208909 -1.169242,-0.06462 -2.531189,-0.444119 -1.213548,-0.350884 -2.672395,-0.284369 -3.110901,-0.170643 -0.766869,-0.0037 -2.243711,0.154962 -2.804382,0.109138 0.235962,-0.417045 0.908494,-1.429832 1.503785,-1.833997 0.30562,-0.600546 0.865724,-1.189556 1.475363,-1.349274 1.317929,-0.987989 2.886836,-0.572292 5.092198,-0.465087 1.813924,-0.477361 0.009,-0.208944 -0.558106,-0.295072 -1.114158,-0.130905 -2.129056,-0.195691 -3.243215,-0.326596 -0.262776,0.05398 -0.617647,0.07936 -0.833006,0.114534 -0.215359,0.03517 0.101219,-0.291769 0.09142,-0.488267 -0.0226,-0.455528 1.083044,-1.148794 0.858885,-1.314892 -0.05609,-0.04156 -1.429235,1.029074 -1.453499,1.187077 -0.0222,0.144556 -0.384264,0.603404 -0.521473,0.669178 -0.137209,0.06578 -1.069552,0.545676 -1.215104,0.645569 -0.145552,0.09989 -0.298062,0.219492 -0.463108,0.364088 -0.165046,0.144597 -0.342628,0.314192 -0.53832,0.514079 -0.59541,0.746955 -0.309556,0.328241 -1.154452,1.128096 -0.473904,0.293649 -0.413458,0.707298 -2.471168,1.647963 -1.150766,0.380293 -1.556696,0.62229 -2.28718,1.619298 -1.140092,1.425391 -1.314888,3.690493 -3.532621,4.386024 -1.846191,0.167231 -2.962228,1.391971 -4.678895,1.697297 0.1451,-0.237696 0.314195,-1.720412 0.426441,-1.898835 0.765234,-1.662947 0.72113,-2.198026 1.977658,-3.631305 0.376419,-0.386965 0.57526,-1.846916 0.472555,-2.317021 -0.28936,-0.125575 -0.290833,0.291599 -0.498914,1.162569 -1.093198,1.597553 -2.747378,2.546343 -3.395658,4.518589 -0.240656,0.801342 -0.742017,2.007735 -1.62574,2.87993 -1.578058,1.185046 -2.8123604,1.372335 -4.0400654,2.343366 -0.3706337,0.356128 -1.6291321,1.359708 -1.6728441,1.375798 -1.5273631,0.736308 -0.8791414,0.362348 -1.6613151,1.018017 1.5867501,2.415703 3.5715038,4.544959 5.8699236,6.29729 0.558479,-0.70278 1.141892,-0.941063 1.623399,-1.576841 0.128977,0.009 0.679546,-0.95403 1.288052,-1.325308 1.17515,-1.397172 1.863371,-1.795303 2.904731,-3.318661 0.300005,-0.653242 1.176471,-1.17622 1.949094,-1.316221 0.828892,-0.363249 0.696862,-0.28393 1.698999,-0.881724 0.958141,-0.669867 1.59178,-0.64868 2.220829,-0.8473 0.924986,-0.503802 1.280001,-0.663395 1.574013,-1.087526 0.294012,-0.424131 0.524669,-0.851054 1.27178,-1.494789 0.725183,-0.588881 1.613665,-0.535718 2.459799,-0.826306 1.266257,-0.138951 1.138447,-0.127184 2.399855,-0.164848 0.726922,-0.195289 1.875319,-0.770503 2.395277,-0.801663 2.109749,-0.734913 2.7764,-0.772757 4.339885,-1.313966 1.609482,-0.413065 3.535726,-0.965006 4.757466,-1.525676 0.649182,-0.419413 -1.397141,0.180656 -2.029249,0.338402 -1.04692,0.261274 -2.27385,0.414681 -3.172807,0.589498 -0.399166,-0.177251 -0.67166,0.413084 -2.426944,0.659328 -1.126095,0.190019 -3.917065,1.032806 -4.471759,0.955971 -1.090183,-0.01096 -1.833932,0.05489 -3.08725,0.144178 -0.646109,0.09908 -1.009254,-0.214193 -0.861335,-0.6992 0.179281,-0.749505 0.471177,-2.012022 2.241096,-2.984316 2.613076,-0.758539 3.552803,-1.001574 6.053669,-0.881023 2.05972,0.313819 4.633708,0.314394 8.279661,-0.355744 1.438432,-1.153376 2.94045,-0.150585 3.716424,-0.513732 -1.294846,-0.651781 -2.322752,-0.467111 -1.456995,-1.358029 0.346169,-0.35623 0.656402,-0.800223 1.035047,-1.134216 0.378645,-0.33399 0.373139,-0.43532 0.856647,-0.672757 0.73133,-0.500884 1.240742,-1.067015 0.09847,-0.482653 -1.040928,0.4719 -0.416633,0.127072 -1.52926,0.979275 z"
       id="path13177"
       sodipodi:nodetypes="cccccccccccscsssssccccccccccccccccccccccsccccccccccccccccssccsc" />
    <path
       style="color:#000000;fill:#000000;stroke-width:1.33023;-inkscape-stroke:none"
       d="m 35.775598,21.165949 c -0.682296,-0.02861 -2.097379,0.94938 -0.544322,0.643908 0.874719,0.03387 2.805493,-0.357564 2.649945,-1.253721 -0.747761,0.01667 -1.410771,0.394793 -2.105623,0.609813 z"
       id="path13175" />
    <path
       style="color:#000000;fill:#000000;stroke-width:1.33023;-inkscape-stroke:none"
       d="m 33.086429,19.711017 c -0.481905,1.243588 1.151962,-0.628853 1.127113,-1.08432 0.435101,-0.434117 0.653561,-1.734128 -0.126136,-0.750982 -0.448693,0.557921 -0.788639,1.150298 -1.000977,1.835302 z"
       id="path13173" />
    <path
       style="color:#000000;fill:#000000;stroke-width:1.33023;-inkscape-stroke:none"
       d="m 40.791024,21.176981 c -0.879453,-0.09971 -2.569497,0.79825 -2.615909,1.229124 0.997434,-0.157261 2.702569,-0.537999 3.171828,-1.251524 -0.183541,-0.04325 -0.371993,0.01204 -0.555919,0.0224 z"
       id="path13171" />
    <path
       style="color:#000000;fill:#000000;stroke-width:1.33023;-inkscape-stroke:none"
       d="m 33.911756,23.713508 c -0.642732,-0.149519 -2.22514,-0.117343 -0.778167,0.331633 0.754691,0.175724 2.239238,0.817925 2.635713,0.175949 -0.568254,-0.303048 -1.225483,-0.419395 -1.857546,-0.507582 z"
       id="path13169" />
    <path
       style="color:#000000;fill:#000000;stroke-width:1.33023;-inkscape-stroke:none"
       d="m 19.366147,27.579884 c -0.617941,0.16432 -2.17508,1.363819 -0.584355,0.66768 0.921705,-0.119768 2.928122,-1.057676 2.588799,-1.878234 -0.753949,0.251853 -1.315856,0.846404 -2.004444,1.210554 z"
       id="path13167" />
    <path
       style="color:#000000;fill:#000000;stroke-width:1.33023;-inkscape-stroke:none"
       d="m 14.958266,28.056424 c 0.828654,-0.256125 0.524444,-2.442039 0.137191,-3.331335 -0.949876,-0.470213 -0.02362,2.273223 -0.144892,3.035751 l 0.0077,0.295581 z"
       id="path13165" />
    <path
       style="color:#000000;fill:#000000;stroke-width:1.33023;-inkscape-stroke:none"
       d="m 20.999273,24.509906 c -0.853474,0.519885 -1.773749,1.298274 -2.156223,2.232065 1.323523,-0.741301 2.666298,-1.511095 3.717486,-2.623488 -0.261637,-0.491882 -1.143107,0.318159 -1.561263,0.391423 z"
       id="path13163" />
    <path
       style="color:#000000;fill:#000000;stroke-width:1.33023;-inkscape-stroke:none"
       d="m 48.048408,21.525619 c -0.722756,0.376754 -1.992955,1.56151 -0.431565,0.94107 0.980224,-0.406288 2.536293,-0.68468 2.803998,-1.753353 -0.808011,0.165104 -1.556523,0.614611 -2.372433,0.812283 z"
       id="path1300-6-6" />
  </g>
</svg>
