<?xml version="1.0" encoding="UTF-8" standalone="no"?>
<!-- Created with Inkscape (http://www.inkscape.org/) -->

<svg
   width="53mm"
   height="53mm"
   viewBox="0 0 53 53"
   version="1.1"
   id="svg37476"
   sodipodi:docname="leftfield-icon.svg"
   inkscape:version="1.2.2 (732a01da63, 2022-12-09)"
   inkscape:export-filename="..\_images\leftfield-icon.webp"
   inkscape:export-xdpi="96"
   inkscape:export-ydpi="96"
   xmlns:inkscape="http://www.inkscape.org/namespaces/inkscape"
   xmlns:sodipodi="http://sodipodi.sourceforge.net/DTD/sodipodi-0.dtd"
   xmlns="http://www.w3.org/2000/svg"
   xmlns:svg="http://www.w3.org/2000/svg">
  <sodipodi:namedview
     id="namedview37478"
     pagecolor="#3e3e3e"
     bordercolor="#666666"
     borderopacity="1.0"
     inkscape:showpageshadow="2"
     inkscape:pageopacity="0"
     inkscape:pagecheckerboard="false"
     inkscape:deskcolor="#d1d1d1"
     inkscape:document-units="mm"
     showgrid="false"
     inkscape:zoom="4"
     inkscape:cx="106.25"
     inkscape:cy="106.25"
     inkscape:window-width="1920"
     inkscape:window-height="1137"
     inkscape:window-x="-8"
     inkscape:window-y="-8"
     inkscape:window-maximized="1"
     inkscape:current-layer="layer1"
     showborder="false" />
  <defs
     id="defs37473">
    <inkscape:path-effect
       effect="bspline"
       id="path-effect64677"
       is_visible="true"
       lpeversion="1"
       weight="33.333333"
       steps="2"
       helper_size="0"
       apply_no_weight="true"
       apply_with_weight="true"
       only_selected="false" />
    <inkscape:path-effect
       effect="bspline"
       id="path-effect64671"
       is_visible="true"
       lpeversion="1"
       weight="33.333333"
       steps="2"
       helper_size="0"
       apply_no_weight="true"
       apply_with_weight="true"
       only_selected="false" />
    <inkscape:path-effect
       effect="bspline"
       id="path-effect64663"
       is_visible="true"
       lpeversion="1"
       weight="33.333333"
       steps="2"
       helper_size="0"
       apply_no_weight="true"
       apply_with_weight="true"
       only_selected="false" />
    <inkscape:path-effect
       effect="bspline"
       id="path-effect64530"
       is_visible="true"
       lpeversion="1"
       weight="33.333333"
       steps="2"
       helper_size="0"
       apply_no_weight="true"
       apply_with_weight="true"
       only_selected="false" />
    <inkscape:path-effect
       effect="spiro"
       id="path-effect73480"
       is_visible="true"
       lpeversion="1" />
    <inkscape:path-effect
       effect="simplify"
       id="path-effect73478"
       is_visible="true"
       lpeversion="1"
       steps="1"
       threshold="0.00924528"
       smooth_angles="360"
       helper_size="0"
       simplify_individual_paths="false"
       simplify_just_coalesce="false" />
    <inkscape:path-effect
       effect="spiro"
       id="path-effect73474"
       is_visible="true"
       lpeversion="1" />
    <inkscape:path-effect
       effect="simplify"
       id="path-effect73472"
       is_visible="true"
       lpeversion="1"
       steps="1"
       threshold="0.00924528"
       smooth_angles="360"
       helper_size="0"
       simplify_individual_paths="false"
       simplify_just_coalesce="false" />
    <inkscape:path-effect
       effect="spiro"
       id="path-effect73468"
       is_visible="true"
       lpeversion="1" />
    <inkscape:path-effect
       effect="simplify"
       id="path-effect73466"
       is_visible="true"
       lpeversion="1"
       steps="1"
       threshold="0.00924528"
       smooth_angles="360"
       helper_size="0"
       simplify_individual_paths="false"
       simplify_just_coalesce="false" />
    <inkscape:path-effect
       effect="spiro"
       id="path-effect73462"
       is_visible="true"
       lpeversion="1" />
    <inkscape:path-effect
       effect="simplify"
       id="path-effect73460"
       is_visible="true"
       lpeversion="1"
       steps="1"
       threshold="0.00924528"
       smooth_angles="360"
       helper_size="0"
       simplify_individual_paths="false"
       simplify_just_coalesce="false" />
    <inkscape:path-effect
       effect="spiro"
       id="path-effect73336"
       is_visible="true"
       lpeversion="1" />
    <inkscape:path-effect
       effect="simplify"
       id="path-effect73334"
       is_visible="true"
       lpeversion="1"
       steps="1"
       threshold="0.00924528"
       smooth_angles="360"
       helper_size="0"
       simplify_individual_paths="false"
       simplify_just_coalesce="false" />
    <rect
       x="240.45615"
       y="31.669834"
       width="472.7016"
       height="174.77057"
       id="rect62766" />
    <inkscape:path-effect
       effect="spiro"
       id="path-effect59574"
       is_visible="true"
       lpeversion="1" />
    <inkscape:path-effect
       effect="simplify"
       id="path-effect59572"
       is_visible="true"
       lpeversion="1"
       steps="1"
       threshold="0.00924528"
       smooth_angles="360"
       helper_size="0"
       simplify_individual_paths="false"
       simplify_just_coalesce="false" />
    <inkscape:path-effect
       effect="spiro"
       id="path-effect58803"
       is_visible="true"
       lpeversion="1" />
    <inkscape:path-effect
       effect="simplify"
       id="path-effect58801"
       is_visible="true"
       lpeversion="1"
       steps="1"
       threshold="0.00924528"
       smooth_angles="360"
       helper_size="0"
       simplify_individual_paths="false"
       simplify_just_coalesce="false" />
    <inkscape:path-effect
       effect="spiro"
       id="path-effect58383"
       is_visible="true"
       lpeversion="1" />
    <inkscape:path-effect
       effect="simplify"
       id="path-effect58381"
       is_visible="true"
       lpeversion="1"
       steps="1"
       threshold="0.00924528"
       smooth_angles="360"
       helper_size="0"
       simplify_individual_paths="false"
       simplify_just_coalesce="false" />
    <inkscape:path-effect
       effect="spiro"
       id="path-effect57135"
       is_visible="true"
       lpeversion="1" />
    <inkscape:path-effect
       effect="simplify"
       id="path-effect57133"
       is_visible="true"
       lpeversion="1"
       steps="1"
       threshold="0.00924528"
       smooth_angles="360"
       helper_size="0"
       simplify_individual_paths="false"
       simplify_just_coalesce="false" />
    <inkscape:path-effect
       effect="skeletal"
       id="path-effect57129"
       is_visible="true"
       lpeversion="1"
       pattern="M 0,4.9921385 C 0,2.2364781 2.2364781,0 4.9921385,0 7.747799,0 9.984277,2.2364781 9.984277,4.9921385 9.984277,7.747799 7.747799,9.984277 4.9921385,9.984277 2.2364781,9.984277 0,7.747799 0,4.9921385 Z"
       copytype="single_stretched"
       prop_scale="1"
       scale_y_rel="false"
       spacing="0"
       normal_offset="0"
       tang_offset="0"
       prop_units="false"
       vertical_pattern="false"
       hide_knot="false"
       fuse_tolerance="0" />
    <inkscape:path-effect
       effect="spiro"
       id="path-effect57127"
       is_visible="true"
       lpeversion="1" />
    <inkscape:path-effect
       effect="simplify"
       id="path-effect57125"
       is_visible="true"
       lpeversion="1"
       steps="1"
       threshold="0.00924528"
       smooth_angles="360"
       helper_size="0"
       simplify_individual_paths="false"
       simplify_just_coalesce="false" />
    <inkscape:path-effect
       effect="powerstroke"
       id="path-effect52835"
       is_visible="true"
       lpeversion="1"
       offset_points="0,1.017866"
       not_jump="false"
       sort_points="true"
       interpolator_type="CubicBezierJohan"
       interpolator_beta="0.2"
       start_linecap_type="zerowidth"
       linejoin_type="extrp_arc"
       miter_limit="4"
       scale_width="1"
       end_linecap_type="zerowidth" />
    <inkscape:path-effect
       effect="spiro"
       id="path-effect52833"
       is_visible="true"
       lpeversion="1" />
    <inkscape:path-effect
       effect="simplify"
       id="path-effect52831"
       is_visible="true"
       lpeversion="1"
       steps="1"
       threshold="0.00924528"
       smooth_angles="360"
       helper_size="0"
       simplify_individual_paths="false"
       simplify_just_coalesce="false" />
    <inkscape:path-effect
       effect="spiro"
       id="path-effect52819"
       is_visible="true"
       lpeversion="1" />
    <inkscape:path-effect
       effect="simplify"
       id="path-effect52817"
       is_visible="true"
       lpeversion="1"
       steps="1"
       threshold="0.00924528"
       smooth_angles="360"
       helper_size="0"
       simplify_individual_paths="false"
       simplify_just_coalesce="false" />
    <filter
       style="color-interpolation-filters:sRGB"
       inkscape:label="Drop Shadow"
       id="filter48949"
       x="-0.19200001"
       y="-0.19200001"
       width="1.384"
       height="1.384">
      <feFlood
         flood-opacity="1"
         flood-color="rgb(255,255,255)"
         result="flood"
         id="feFlood48939" />
      <feComposite
         in="flood"
         in2="SourceGraphic"
         operator="in"
         result="composite1"
         id="feComposite48941" />
      <feGaussianBlur
         in="composite1"
         stdDeviation="4.8"
         result="blur"
         id="feGaussianBlur48943" />
      <feOffset
         dx="0"
         dy="0"
         result="offset"
         id="feOffset48945" />
      <feComposite
         in="SourceGraphic"
         in2="offset"
         operator="over"
         result="composite2"
         id="feComposite48947" />
    </filter>
    <rect
       x="240.45615"
       y="31.669834"
       width="281.50964"
       height="83.279938"
       id="rect62766-8" />
    <rect
       x="240.45615"
       y="31.669834"
       width="281.50964"
       height="83.279938"
       id="rect62766-4" />
    <rect
       x="240.45615"
       y="31.669834"
       width="453.9343"
       height="139.58186"
       id="rect62766-3" />
  </defs>
  <g
     inkscape:label="Layer 1"
     inkscape:groupmode="layer"
     id="layer1">
    <circle
       style="fill:#2f8cef;fill-opacity:1;stroke:none;stroke-width:1.90498;stroke-dasharray:none;stroke-opacity:0.996078"
       id="path38012"
       cx="26.914518"
       cy="26.404413"
       r="25.574499" />
    <circle
       style="fill:#ffffff;fill-opacity:0.996078;stroke:none;stroke-width:1.965;stroke-dasharray:none;stroke-opacity:1;filter:url(#filter48949);opacity:1"
       id="path47820"
       cx="66.454048"
       cy="50.14053"
       r="30"
       transform="matrix(0.51149047,0,0,0.51149047,-1.2148635,-1.4638218)" />
    <path
       style="color:#000000;fill:#000000;stroke-width:1.239;-inkscape-stroke:none"
       d="m 33.851166,33.753059 c -0.519949,-0.04046 -2.509703,-0.211765 -1.054901,0.199091 1.099111,0.170982 1.973164,0.850188 3.274771,0.395946 -0.570225,-0.297113 -1.443319,-0.550426 -2.219873,-0.595015 z"
       id="path13181-4"
       sodipodi:nodetypes="ccccc" />
    <circle
       id="path64657"
       style="fill:#000000;stroke:#000000;stroke-width:0.264583"
       cx="62.379307"
       cy="32.818962"
       r="0" />
    <circle
       id="path64659"
       style="fill:#000000;stroke:#000000;stroke-width:0.264583"
       cx="30.413792"
       cy="26.379311"
       r="0" />
    <g
       id="path64675" />
    <path
       style="color:#000000;fill:#000000;stroke-width:1.33023;-inkscape-stroke:none"
       d="m 45.729132,22.388847 c -0.24523,0.500906 -0.628255,2.453277 0.09144,1.065731 0.347649,-0.683342 1.37729,-2.346269 0.924707,-2.622393 -0.359463,0.505815 -0.810821,0.955913 -1.016145,1.556662 z"
       id="path13191" />
    <path
       style="color:#000000;fill:#000000;stroke-width:1.33023;-inkscape-stroke:none"
       d="m 48.222417,25.70855 c -0.735562,0.06214 -2.46836,0.930788 -0.741696,0.782875 1.200845,-0.237841 2.509444,-0.08846 3.626403,-0.62945 -0.808153,-0.373757 -2.003573,-0.358501 -2.884707,-0.153425 z"
       id="path13189" />
    <path
       style="color:#000000;fill:#000000;stroke-width:1.33023;-inkscape-stroke:none"
       d="m 45.653369,28.57606 c -0.605759,-0.143115 -2.295653,-0.557556 -0.894862,0.237184 0.927514,0.281781 2.3125,0.88392 3.077481,0.654171 -0.638387,-0.51533 -1.438458,-0.614026 -2.182619,-0.891355 z"
       id="path13187" />
    <path
       style="color:#000000;fill:#000000;stroke-width:1.33023;-inkscape-stroke:none"
       d="m 41.41531,31.812182 c -0.506556,-0.149694 -2.261279,-0.189488 -0.828842,0.202896 0.949404,0.353701 2.551378,0.789867 3.237031,0.49678 -0.801645,-0.249815 -1.56243,-0.60866 -2.40819,-0.699678 z"
       id="path13183" />
    <path
       style="color:#000000;fill:#000000;stroke-width:1.33023;-inkscape-stroke:none"
       d="m 43.731788,30.731413 c -0.559662,-0.01719 -2.735238,0.08506 -1.154316,0.452331 1.179158,0.03749 2.540622,0.357564 3.512882,-0.502522 -0.626519,-0.289894 -1.671642,-0.110361 -2.358568,0.0502 z"
       id="path13181" />
    <path
       style="color:#000000;fill:#000000;stroke-width:1.33023;-inkscape-stroke:none"
       d="m 37.934577,29.677812 c -0.539942,0.131601 -2.246195,1.557547 -0.727496,0.856514 0.831799,-0.280011 2.408982,-0.726135 2.510461,-1.45196 -0.606771,0.155411 -1.196441,0.382752 -1.782965,0.595446 z"
       id="path13179" />
    <path
       style="color:#000000;fill:#000000;stroke-width:1.33023;-inkscape-stroke:none"
       d="m 43.795644,26.173031 c -1.261515,1.200353 -2.31684,1.155703 -3.907255,1.329715 -0.761398,0.217364 -1.190245,0.111186 -1.949665,0.08391 -1.39975,-0.208909 -1.169241,-0.06462 -2.531187,-0.444119 -1.213548,-0.350884 -2.672394,-0.284369 -3.110899,-0.170643 -0.766869,-0.0037 -2.24371,0.154962 -2.804381,0.109138 0.235962,-0.417045 0.908494,-1.429831 1.503784,-1.833996 0.30562,-0.600545 0.865724,-1.189555 1.475362,-1.349273 1.317929,-0.987988 2.886835,-0.572292 5.092196,-0.465087 1.813922,-0.477361 0.009,-0.208944 -0.558106,-0.295072 -1.114158,-0.130905 -2.129055,-0.195691 -3.243213,-0.326595 -0.262776,0.05398 -0.617647,0.07936 -0.833006,0.114533 -0.215359,0.03517 0.101219,-0.291768 0.09142,-0.488266 -0.0226,-0.455528 1.083043,-1.148793 0.858885,-1.314891 -0.05609,-0.04156 -1.429235,1.029073 -1.453499,1.187076 -0.0222,0.144556 -0.384263,0.603403 -0.521472,0.669177 -0.137209,0.06578 -1.069552,0.545676 -1.215103,0.645569 -0.145552,0.09989 -0.298062,0.219492 -0.463108,0.364088 -0.165046,0.144597 -0.342628,0.314192 -0.53832,0.514078 -0.595409,0.746955 -0.309556,0.328242 -1.154451,1.128096 -0.473904,0.293649 -0.413458,0.707298 -2.471167,1.647962 -1.150765,0.380293 -1.556695,0.62229 -2.287179,1.619297 -1.140092,1.42539 -1.314888,3.690491 -3.532621,4.386022 -1.846191,0.167231 -2.962228,1.39197 -4.678895,1.697296 0.1451,-0.237696 0.314195,-1.720411 0.426441,-1.898834 0.765234,-1.662947 0.72113,-2.198025 1.977658,-3.631303 0.376419,-0.386965 0.57526,-1.846915 0.472555,-2.31702 -0.28936,-0.125575 -0.290833,0.291599 -0.498914,1.162568 -1.093198,1.597552 -2.747378,2.546342 -3.395658,4.518587 -0.240656,0.801341 -0.742017,2.007734 -1.62574,2.879928 -1.578058,1.185045 -2.81236,1.372334 -4.0400656,2.343365 -0.3706342,0.356128 -1.6291333,1.359707 -1.6728452,1.375797 -1.5273646,0.736308 -0.879142,0.362348 -1.6613165,1.018016 1.5867509,2.415703 3.5715063,4.544959 5.8699263,6.29729 0.558479,-0.70278 1.141892,-0.941063 1.623399,-1.576841 0.128977,0.009 0.679546,-0.95403 1.288052,-1.325308 1.17515,-1.397172 1.863371,-1.795303 2.904731,-3.318661 0.300005,-0.653241 1.176471,-1.176219 1.949094,-1.31622 0.828892,-0.363249 0.696862,-0.28393 1.698999,-0.881723 0.958141,-0.669867 1.59178,-0.64868 2.220829,-0.8473 0.924986,-0.503802 1.280001,-0.663395 1.574013,-1.087525 0.294012,-0.424131 0.524669,-0.851054 1.271779,-1.494788 0.725183,-0.588881 1.613664,-0.535718 2.459798,-0.826306 1.266256,-0.138951 1.138446,-0.127184 2.399853,-0.164848 0.726922,-0.195289 1.875318,-0.770502 2.395276,-0.801662 2.109748,-0.734913 2.776398,-0.772757 4.339883,-1.313966 1.609481,-0.413064 3.535723,-0.965005 4.757463,-1.525675 0.649181,-0.419413 -1.397141,0.180656 -2.029248,0.338402 -1.04692,0.261274 -2.273849,0.414681 -3.172805,0.589498 -0.399166,-0.177251 -0.67166,0.413083 -2.426943,0.659327 -1.126094,0.190019 -3.917063,1.032806 -4.471756,0.955971 -1.090182,-0.01096 -1.833931,0.05489 -3.087249,0.144178 -0.646108,0.09908 -1.009253,-0.214193 -0.861334,-0.6992 0.179281,-0.749505 0.471177,-2.012021 2.241095,-2.984314 2.613074,-0.758539 3.552801,-1.001574 6.053665,-0.881023 2.059719,0.313819 4.633706,0.314394 8.279657,-0.355743 1.438431,-1.153376 2.940448,-0.150585 3.716422,-0.513732 -1.294846,-0.651781 -2.322751,-0.467111 -1.456995,-1.358028 0.346169,-0.35623 0.656402,-0.800223 1.035047,-1.134215 0.378645,-0.33399 0.373139,-0.435321 0.856647,-0.672757 0.73133,-0.500884 1.240742,-1.067015 0.09847,-0.482653 -1.040928,0.4719 -0.416633,0.127072 -1.52926,0.979275 z"
       id="path13177"
       sodipodi:nodetypes="cccccccccccscsssssccccccccccccccccccccccsccccccccccccccccssccsc" />
    <path
       style="color:#000000;fill:#000000;stroke-width:1.33023;-inkscape-stroke:none"
       d="m 36.594955,21.50652 c -0.682296,-0.02861 -2.097378,0.94938 -0.544322,0.643908 0.874719,0.03387 2.805492,-0.357564 2.649944,-1.25372 -0.747761,0.01667 -1.41077,0.394793 -2.105622,0.609812 z"
       id="path13175" />
    <path
       style="color:#000000;fill:#000000;stroke-width:1.33023;-inkscape-stroke:none"
       d="m 33.905788,20.051589 c -0.481905,1.243588 1.151961,-0.628853 1.127112,-1.08432 0.435101,-0.434117 0.65356,-1.734128 -0.126136,-0.750982 -0.448693,0.557921 -0.788639,1.150298 -1.000976,1.835302 z"
       id="path13173" />
    <path
       style="color:#000000;fill:#000000;stroke-width:1.33023;-inkscape-stroke:none"
       d="m 41.610378,21.517552 c -0.879452,-0.09971 -2.569495,0.79825 -2.615907,1.229124 0.997433,-0.157261 2.702567,-0.537999 3.171826,-1.251524 -0.183541,-0.04325 -0.371993,0.01204 -0.555919,0.0224 z"
       id="path13171" />
    <path
       style="color:#000000;fill:#000000;stroke-width:1.33023;-inkscape-stroke:none"
       d="m 34.731114,24.054078 c -0.642732,-0.149519 -2.225139,-0.117343 -0.778167,0.331633 0.754691,0.175723 2.239237,0.817924 2.635712,0.175948 -0.568254,-0.303047 -1.225482,-0.419394 -1.857545,-0.507581 z"
       id="path13169" />
    <path
       style="color:#000000;fill:#000000;stroke-width:1.33023;-inkscape-stroke:none"
       d="m 20.185511,27.920452 c -0.617941,0.16432 -2.17508,1.363818 -0.584355,0.667679 0.921705,-0.119768 2.928122,-1.057675 2.588799,-1.878233 -0.753949,0.251853 -1.315856,0.846404 -2.004444,1.210554 z"
       id="path13167" />
    <path
       style="color:#000000;fill:#000000;stroke-width:1.33023;-inkscape-stroke:none"
       d="m 15.77763,28.396991 c 0.828654,-0.256124 0.524444,-2.442037 0.137191,-3.331333 -0.949876,-0.470213 -0.02362,2.273222 -0.144892,3.03575 l 0.0077,0.29558 z"
       id="path13165" />
    <path
       style="color:#000000;fill:#000000;stroke-width:1.33023;-inkscape-stroke:none"
       d="m 21.818637,24.850476 c -0.853474,0.519884 -1.773749,1.298273 -2.156223,2.232063 1.323523,-0.7413 2.666298,-1.511094 3.717486,-2.623486 -0.261637,-0.491882 -1.143107,0.318159 -1.561263,0.391423 z"
       id="path13163" />
    <path
       style="color:#000000;fill:#000000;stroke-width:1.33023;-inkscape-stroke:none"
       d="m 48.86776,21.86619 c -0.722756,0.376754 -1.992955,1.561509 -0.431565,0.94107 0.980224,-0.406288 2.536293,-0.68468 2.803998,-1.753352 -0.808011,0.165104 -1.556523,0.61461 -2.372433,0.812282 z"
       id="path1300-6-6" />
  </g>
</svg>
